<svg width="32" height="28" viewBox="0 0 32 28" fill="none" xmlns="http://www.w3.org/2000/svg">
<path d="M28.8001 28C29.6487 28 30.4627 27.6722 31.0628 27.0888C31.6629 26.5053 32 25.714 32 24.8889V17.2916C32 16.4664 31.6629 15.6751 31.0628 15.0917C30.4627 14.5082 29.6487 14.1804 28.8001 14.1804H24.3585C24.3585 13.0874 24.4247 11.9944 24.5569 10.9013C24.7553 9.744 25.086 8.71526 25.5489 7.81511C26.0118 6.91496 26.6081 6.20667 27.3377 5.69022C28.063 5.11156 28.9889 4.82222 30.1152 4.82222V0C28.2635 0 26.6422 0.385778 25.2513 1.15733C23.87 1.91917 22.6833 2.97408 21.7794 4.24356C20.8694 5.64091 20.1993 7.17293 19.7954 8.77956C19.3871 10.5521 19.1874 12.364 19.2002 14.1804V24.8889C19.2002 25.714 19.5374 26.5053 20.1375 27.0888C20.7376 27.6722 21.5515 28 22.4002 28H28.8001ZM9.60041 28C10.4491 28 11.263 27.6722 11.8631 27.0888C12.4632 26.5053 12.8003 25.714 12.8003 24.8889V17.2916C12.8003 16.4664 12.4632 15.6751 11.8631 15.0917C11.263 14.5082 10.4491 14.1804 9.60041 14.1804H5.15889C5.15889 13.0874 5.22502 11.9944 5.35729 10.9013C5.55781 9.744 5.88848 8.71526 6.34927 7.81511C6.81219 6.91496 7.40845 6.20667 8.13804 5.69022C8.86336 5.11156 9.7892 4.82222 10.9156 4.82222V0C9.06388 0 7.44258 0.385778 6.05167 1.15733C4.67039 1.91917 3.48363 2.97408 2.57974 4.24356C1.66971 5.64091 0.999629 7.17293 0.595773 8.77956C0.187407 10.5521 -0.0122726 12.364 0.000583332 14.1804V24.8889C0.000583332 25.714 0.337719 26.5053 0.937824 27.0888C1.53793 27.6722 2.35185 28 3.20052 28H9.60041Z" fill="#1BDDCE"/>
</svg>
