<svg width="31" height="40" viewBox="0 0 31 40" fill="none" xmlns="http://www.w3.org/2000/svg">
<path d="M30.9979 4.78284C30.9979 5.50397 30.385 6.08666 29.631 6.08666H25.5282V6.16935C25.5282 6.6155 25.1734 6.99052 24.7076 7.03473L22.4758 7.24819C22.6814 6.60587 22.7943 5.92319 22.7943 5.21743C22.7943 4.16744 22.5423 3.17515 22.1048 2.28284L24.7097 2.53092C25.1754 2.57515 25.5302 2.95015 25.5302 3.3963V3.47899H29.6331C30.3891 3.47899 31 4.0636 31 4.78281L30.9979 4.78284ZM10.0301 5.21745C10.0301 2.33668 12.4797 0 15.5001 0C18.5204 0 20.97 2.33653 20.97 5.21745C20.97 8.09822 18.5204 10.4349 15.5001 10.4349C12.4797 10.4349 10.0301 8.09837 10.0301 5.21745ZM12.764 5.21745C12.764 6.65784 13.9878 7.82706 15.4999 7.82706C17.01 7.82706 18.2358 6.65976 18.2358 5.21745C18.2358 3.77706 17.012 2.60784 15.4999 2.60784C13.9898 2.60784 12.764 3.77514 12.764 5.21745ZM11.8527 36.5212C11.8527 38.4423 13.4858 40 15.4999 40C17.514 40 19.1471 38.4423 19.1471 36.5212V33.9116H11.8547V36.5212H11.8527ZM20.9697 29.5654C20.9697 26.6846 18.5201 24.3479 15.4997 24.3479C12.4794 24.3479 10.0298 26.6845 10.0298 29.5654V31.3038C10.0298 31.7846 10.437 32.173 10.941 32.173H20.058C20.562 32.173 20.9693 31.7846 20.9693 31.3038L20.9697 29.5654ZM5.47181 6.16957C5.47181 6.61572 5.82665 6.99073 6.29235 7.03494L8.52421 7.2484C8.31856 6.60609 8.20566 5.92341 8.20566 5.21764C8.20566 4.16765 8.45767 3.17536 8.89516 2.28306L6.29029 2.53114C5.82457 2.57537 5.46975 2.95037 5.46975 3.39651V3.4792H1.36692C0.610892 3.4792 0 4.06382 0 4.78303C0 5.50415 0.612905 6.08685 1.36692 6.08685H5.46975V6.16954L5.47181 6.16957ZM27.3511 14.7829V31.3042C27.3511 33.2253 25.718 34.783 23.7039 34.783H20.968V33.7638C22.0285 33.4042 22.7906 32.4369 22.7906 31.3042V29.5658C22.7906 25.7293 19.5184 22.61 15.4982 22.61C11.476 22.61 8.20575 25.7311 8.20575 29.5658V31.3042C8.20575 32.4388 8.96787 33.4042 10.0283 33.7638V34.783H7.29241C5.27831 34.783 3.64522 33.2253 3.64522 31.3042V14.7829C3.64522 11.9022 6.09483 9.56549 9.11518 9.56549H9.81278C11.1515 11.154 13.1999 12.1751 15.4964 12.1751C17.7928 12.1751 19.8432 11.154 21.18 9.56549H21.8776C24.8978 9.56549 27.3476 11.902 27.3476 14.7829H27.3511ZM19.1472 19.131C19.1472 18.6502 18.74 18.2618 18.2359 18.2618H12.766C12.2619 18.2618 11.8547 18.6502 11.8547 19.131C11.8547 19.6117 12.262 20.0002 12.766 20.0002H18.2359C18.74 20.0002 19.1472 19.6117 19.1472 19.131ZM19.1472 15.6522C19.1472 15.1714 18.74 14.7829 18.2359 14.7829H12.766C12.2619 14.7829 11.8547 15.1714 11.8547 15.6522C11.8547 16.1329 12.262 16.5214 12.766 16.5214H18.2359C18.74 16.5214 19.1472 16.1329 19.1472 15.6522Z" fill="#1BDDCE"/>
</svg>
