<svg width="54" height="54" viewBox="0 0 54 54" fill="none" xmlns="http://www.w3.org/2000/svg">
<path fill-rule="evenodd" clip-rule="evenodd" d="M21.8077 20.7692H32.1923C32.7635 20.7692 33.2308 21.2365 33.2308 21.8077C33.2308 22.3788 32.7635 22.8462 32.1923 22.8462H21.8077C21.2365 22.8462 20.7692 22.3788 20.7692 21.8077C20.7692 21.2365 21.2365 20.7692 21.8077 20.7692ZM27 51.9231C27.5712 51.9231 28.0385 52.3904 28.0385 52.9615C28.0385 53.5327 27.5712 54 27 54C19.5542 54 12.8042 50.9781 7.91308 46.0869L7.89231 46.0662C5.77385 43.9477 4.01885 41.4865 2.7 38.7658L2.08731 41.8085C1.97308 42.3692 1.43308 42.7327 0.861923 42.6185C0.301154 42.5146 -0.0623075 41.9642 0.0519233 41.4035L1.27731 35.235C0.446538 32.6388 0 29.8662 0 27C0 19.5542 3.02192 12.8042 7.91308 7.91308L7.93385 7.89231C12.825 3.01154 19.5646 0 27 0C33.1996 0 38.9215 2.09769 43.4908 5.62846L44.0412 1.00731C44.1035 0.436154 44.6331 0.031154 45.1938 0.0934617C45.765 0.166154 46.17 0.685385 46.1077 1.25654L45.3912 7.23808L46.0869 7.91308L46.1077 7.93385C50.9885 12.825 54 19.5646 54 27C54 31.8496 52.7123 36.4085 50.4796 40.3442C48.6104 43.6154 46.0765 46.4712 43.065 48.7038L46.8762 49.2646C47.4473 49.3477 47.8419 49.8773 47.7589 50.4485C47.6758 51.0092 47.1462 51.4038 46.575 51.3208L40.1054 50.3654H40.095L40.0535 50.355H40.0431H40.0327L40.0015 50.3446L39.9288 50.3238H39.9081L39.8873 50.3135L39.8665 50.3031L39.8458 50.2927H39.8354L39.8146 50.2823L39.7938 50.2719L39.7731 50.2615L39.7523 50.2512L39.7315 50.2408L39.7108 50.2304L39.7004 50.22L39.6796 50.2096L39.6588 50.1992L39.6485 50.1889H39.6381L39.6277 50.1681H39.6173L39.6069 50.1577L39.5862 50.1369L39.5654 50.1162L39.5238 50.085L39.5135 50.0746H39.5031L39.4927 50.0538L39.4719 50.0331L39.4512 50.0123L39.4408 50.0019V49.9915L39.42 49.9708L39.4096 49.9604V49.95L39.3888 49.9292L39.3785 49.9188V49.9085L39.3577 49.8877V49.8773L39.3473 49.8669L39.3369 49.8462V49.8358L39.3162 49.815L39.3058 49.7942L39.2954 49.7735L39.285 49.7527V49.7423L39.2746 49.7215V49.7008H39.2642L39.2538 49.6696V49.6592V49.6488L39.2435 49.6281V49.6073L39.2331 49.5969V49.5762L39.2227 49.5554V49.545V49.5242L39.2123 49.5138V49.5035V49.4723V49.4619V49.4515L39.2019 49.4204V49.41V49.3996V49.3685V49.3477V49.3269V49.3062V49.2958V49.275V49.2542V49.2438L39.2123 49.2231V49.2023V49.1712L39.2227 49.1504V49.1296L40.0431 42.9196C40.1158 42.3588 40.635 41.9538 41.2062 42.0265C41.7669 42.0992 42.1719 42.6288 42.0992 43.1896L41.5592 47.2292C44.4669 45.1419 46.8969 42.4315 48.6727 39.3162C50.7392 35.6919 51.9231 31.4862 51.9231 27C51.9231 20.115 49.14 13.8842 44.6331 9.37731C44.3735 9.12808 44.1138 8.87885 43.8542 8.64L37.8935 8.01692C37.3223 7.95462 36.9069 7.44577 36.9692 6.87462C37.0212 6.31385 37.53 5.89846 38.1012 5.95038L40.7908 6.23077C36.8446 3.60346 32.0988 2.07692 27 2.07692C20.115 2.07692 13.8842 4.86 9.37731 9.36692C4.86 13.8842 2.07692 20.115 2.07692 27C2.07692 29.5235 2.45077 31.9742 3.14654 34.2692L8.76462 35.2973C9.32538 35.3908 9.69923 35.9412 9.59538 36.5019C9.49154 37.0627 8.95154 37.4262 8.39077 37.3327L3.95654 36.5227C5.21308 39.5758 7.07192 42.3277 9.36692 44.6227C13.8842 49.14 20.115 51.9231 27 51.9231ZM20.7692 14.5385V13.5C20.7692 12.6381 21.1223 11.8592 21.6831 11.2985C22.2438 10.7377 23.0227 10.3846 23.8846 10.3846H30.1154C30.9254 10.3846 31.6835 10.7065 32.2338 11.2258L32.3169 11.2985C32.8777 11.8592 33.2308 12.6381 33.2308 13.5V14.5385H34.7469C35.4738 14.5385 36.1385 14.8396 36.6162 15.3069C37.0835 15.7846 37.3846 16.4388 37.3846 17.1762V38.9008C37.3846 39.6277 37.0835 40.2923 36.6162 40.7596C36.1385 41.2373 35.4738 41.5385 34.7469 41.5385H19.2531C18.5262 41.5385 17.8615 41.2373 17.3838 40.7596C16.9165 40.2923 16.6154 39.6277 16.6154 38.9008V17.1762C16.6154 16.4388 16.9165 15.7846 17.3838 15.3069C17.8615 14.8396 18.5262 14.5385 19.2531 14.5385H20.7692ZM21.8077 27H32.1923C32.7635 27 33.2308 27.4673 33.2308 28.0385C33.2308 28.6096 32.7635 29.0769 32.1923 29.0769H21.8077C21.2365 29.0769 20.7692 28.6096 20.7692 28.0385C20.7692 27.4673 21.2365 27 21.8077 27ZM21.8077 33.2308H32.1923C32.7635 33.2308 33.2308 33.6981 33.2308 34.2692C33.2308 34.8404 32.7635 35.3077 32.1923 35.3077H21.8077C21.2365 35.3077 20.7692 34.8404 20.7692 34.2692C20.7692 33.6981 21.2365 33.2308 21.8077 33.2308Z" fill="#1BDDCE"/>
</svg>
