<svg width="41" height="32" viewBox="0 0 41 32" fill="none" xmlns="http://www.w3.org/2000/svg">
<path d="M23.791 14.6023H36.1461C35.6808 10.793 34.5365 7.18194 32.8616 3.73828H23.791V14.6023Z" fill="#1BDDCE"/>
<path d="M37.4831 16.2483C37.5043 16.564 37.5229 16.8808 37.5355 17.1969H38.634C39.7099 17.1969 40.5853 16.3265 40.5853 15.2572V15.1125C40.5853 14.0432 39.7099 13.1729 38.634 13.1729H37.1348C37.2982 14.1915 37.4122 15.2184 37.4831 16.2483C37.4995 16.4898 37.4794 16.1901 37.4831 16.2483Z" fill="#1BDDCE"/>
<path d="M35.2235 2.57482C35.0486 1.12639 33.8045 0 32.3015 0H2.9435C1.44016 0 0.196404 1.12639 0.0214844 2.57482H35.2235Z" fill="#1BDDCE"/>
<path d="M2.04519 26.2311C2.43143 24.2172 4.01536 22.6011 5.99593 22.1228C7.82869 21.6804 9.81521 22.2854 11.0957 23.6768C11.8426 24.4882 12.3309 25.5311 12.4539 26.6303H14.2291L10.877 15.7663H4.61663C4.29315 15.7663 4.03133 15.5058 4.03133 15.1845V3.73828H0V26.6303H1.98131C1.99654 26.4953 2.01994 26.363 2.04519 26.2311Z" fill="#1BDDCE"/>
<path d="M8.53701 11.094C8.42782 10.4459 7.86146 9.9751 7.19001 9.9751H5.20312V14.6025H9.12824L8.53701 11.094Z" fill="#1BDDCE"/>
<path d="M31.8808 25.6686C32.4843 23.7345 34.2012 22.292 36.2048 22.0281C36.3604 20.5823 36.3544 16.9314 36.3307 16.5486C36.3299 16.5382 36.3296 16.5273 36.3292 16.5169C36.3136 16.2672 36.2887 16.0167 36.2672 15.7666H23.791V26.6306H31.6788C31.7152 26.2992 31.7853 25.9783 31.8808 25.6686C31.8849 25.6563 31.7853 25.9783 31.8808 25.6686ZM28.7779 18.9516H25.8277C25.5042 18.9516 25.2424 18.691 25.2424 18.3697C25.2424 18.0485 25.5046 17.7879 25.8277 17.7879H28.7779C29.1014 17.7879 29.3632 18.0485 29.3632 18.3697C29.3632 18.691 29.101 18.9516 28.7779 18.9516Z" fill="#1BDDCE"/>
<path d="M11.3148 27.2122C11.3148 24.9662 9.47643 23.1387 7.21695 23.1387C4.95747 23.1387 3.11914 24.9658 3.11914 27.2122C3.11914 29.4583 4.95747 31.2858 7.21695 31.2858C9.47605 31.2858 11.314 29.4594 11.3148 27.2137C11.3151 27.213 11.3148 27.2122 11.3148 27.2122ZM7.21732 28.7639C6.35535 28.7639 5.65641 28.0692 5.65641 27.2122C5.65641 26.3553 6.35535 25.6606 7.21732 25.6606C8.07929 25.6606 8.77823 26.3553 8.77823 27.2122C8.77823 28.0692 8.07929 28.7639 7.21732 28.7639Z" fill="#1BDDCE"/>
<path d="M36.9153 23.1157C34.6591 23.1157 32.8301 24.9499 32.8301 27.2128C32.8301 29.4756 34.6591 31.3098 36.9153 31.3098C39.1714 31.3098 41.0004 29.4756 41.0004 27.2128C41.0004 24.9499 39.1714 23.1157 36.9153 23.1157ZM36.9153 28.6966C36.0904 28.6966 35.4219 28.032 35.4219 27.2124C35.4219 26.3928 36.0904 25.7282 36.9153 25.7282C37.7397 25.7282 38.4086 26.3928 38.4086 27.2124C38.4086 28.032 37.7401 28.6966 36.9153 28.6966Z" fill="#1BDDCE"/>
<path d="M24.0935 25.1592H12.5938V26.6501H24.0935V25.1592Z" fill="#1BDDCE"/>
</svg>
