<svg width="91" height="91" viewBox="0 0 91 91" fill="none" xmlns="http://www.w3.org/2000/svg">
<path d="M-1.98887e-06 45.5L22.75 6.09584L68.25 6.09584L91 45.5L68.25 84.9042L22.75 84.9042L-1.98887e-06 45.5Z" fill="#1BDDCE" fill-opacity="0.32"/>
<path d="M45.0226 28.7333C37.6664 28.7333 31.6746 34.785 31.6627 42.2241C31.6674 45.9057 33.1134 49.3468 35.7327 51.9104C36.7753 52.9293 37.3047 54.1887 37.3047 55.658V57.0236C36.5071 57.4127 35.9543 58.2429 35.9543 59.1981C35.9543 60.1722 36.528 61.0118 37.3537 61.3915C37.0715 61.7877 36.9036 62.2736 36.9036 62.7995C36.9036 64.1273 37.9718 65.2099 39.2873 65.2099H39.7188C40.0196 67.9009 42.2844 70 45.0249 70C47.7654 70 50.0302 67.9009 50.3311 65.2099H50.7626C52.078 65.2099 53.1486 64.1297 53.1486 62.7995C53.1486 62.2736 52.9806 61.7877 52.6961 61.3915C53.5194 61.0118 54.0932 60.1722 54.0932 59.1981C54.0932 58.243 53.5404 57.4151 52.7427 57.0236V55.658C52.7427 54.191 53.2722 52.9316 54.3148 51.9104C56.9317 49.3514 58.3778 45.9128 58.3871 42.2241C58.3707 34.7856 52.3769 28.7333 45.0226 28.7333ZM45.0226 68.7829C42.9467 68.7829 41.2231 67.2286 40.9315 65.2097H49.1135C48.8196 67.2286 47.0984 68.7829 45.0226 68.7829ZM50.7602 63.9904H39.2848C38.6341 63.9904 38.1069 63.455 38.1069 62.7993C38.1069 62.1413 38.6363 61.6083 39.2848 61.6083H50.7602C51.4109 61.6083 51.9404 62.1437 51.9404 62.7993C51.9404 63.4573 51.411 63.9904 50.7602 63.9904ZM51.7095 60.389H38.3359C37.6852 60.389 37.158 59.8536 37.158 59.1979C37.158 58.54 37.6875 58.0045 38.3359 58.0045H51.7095C52.3602 58.0045 52.8874 58.5399 52.8874 59.1979C52.8874 59.856 52.3579 60.389 51.7095 60.389ZM53.4751 51.0354C52.1899 52.2948 51.5369 53.8514 51.5369 55.658V56.7853H38.5084V55.658C38.5084 53.8466 37.8553 52.2901 36.5702 51.0354C34.1888 48.7028 32.8734 45.5754 32.8687 42.2263C32.8804 35.4598 38.3334 29.9528 45.0248 29.9528C51.7162 29.9528 57.1696 35.4575 57.1833 42.2239C57.1717 45.5777 55.8564 48.7048 53.4751 51.0354ZM29.4584 27.3608C29.2228 27.1226 29.2228 26.7358 29.4584 26.4999C29.6939 26.2617 30.0765 26.2617 30.3097 26.4999L33.8316 30.0636C34.0671 30.3018 34.0671 30.6886 33.8316 30.9244C33.7149 31.0424 33.5587 31.1037 33.4047 31.1037C33.2508 31.1037 33.0969 31.0447 32.9779 30.9244L29.4584 27.3608ZM29.1855 42.2239C29.1855 42.5611 28.9149 42.8324 28.5837 42.8324H23.6017C23.2682 42.8324 23 42.5588 23 42.2239C23 41.8866 23.2706 41.6154 23.6017 41.6154H28.5837C28.9149 41.6154 29.1855 41.8866 29.1855 42.2239ZM33.8013 53.5398C34.0368 53.778 34.0368 54.1624 33.8013 54.4007L30.2771 57.962C30.1605 58.0799 30.0042 58.1412 29.8503 58.1412C29.6963 58.1412 29.5424 58.0823 29.4234 57.962C29.1879 57.7238 29.1879 57.3394 29.4234 57.1011L32.9476 53.5398C33.1832 53.3016 33.5657 53.3016 33.8013 53.5398ZM60.5395 57.1341C60.7751 57.3723 60.7751 57.7567 60.5395 57.995C60.4229 58.1129 60.2666 58.1742 60.1127 58.1742C59.9587 58.1742 59.8048 58.1153 59.6859 57.995L56.164 54.4313C55.9284 54.1931 55.9284 53.8087 56.164 53.5705C56.3996 53.3323 56.7821 53.3323 57.0153 53.5705L60.5395 57.1341ZM67 42.271C67 42.6083 66.7294 42.8795 66.3983 42.8795H61.4163C61.0827 42.8795 60.8145 42.6059 60.8145 42.271C60.8145 41.9338 61.0851 41.6626 61.4163 41.6626H66.3983C66.7318 41.6602 67 41.9338 67 42.271ZM60.5741 26.5331C60.8097 26.7713 60.8097 27.1581 60.5741 27.3939L57.0499 30.9552C56.9333 31.0732 56.777 31.1345 56.6231 31.1345C56.4692 31.1345 56.3152 31.0755 56.1963 30.9552C55.9607 30.717 55.9607 30.3302 56.1963 30.0944L59.7205 26.5331C59.9561 26.2949 60.3386 26.2949 60.5741 26.5331ZM44.4175 25.6462V20.6085C44.4175 20.2712 44.6881 20 45.0193 20C45.3528 20 45.6233 20.2712 45.6233 20.6085V25.6462C45.6233 25.9835 45.3528 26.2547 45.0216 26.2547C44.6881 26.2571 44.4175 25.9835 44.4175 25.6462ZM53.0544 41.9813C52.8701 41.8917 52.6556 41.9012 52.4806 42.0073C51.6689 42.5026 51.0299 42.5356 50.3372 42.5285C48.8655 42.512 47.7412 42.8705 46.9016 43.6252C45.978 44.4625 45.1827 46.071 45.4975 47.4365C45.3016 47.7007 45.1243 47.9719 44.9657 48.2502C44.7675 47.1158 44.4643 46.0049 44.0117 44.9625C44.7208 43.5852 44.4409 41.6488 43.7692 40.4318C43.1301 39.2738 42.0176 38.4389 40.3709 37.8846C39.5662 37.6111 38.8385 37.3139 38.0899 36.4059C37.9592 36.2479 37.7587 36.1677 37.5557 36.1913C37.3528 36.2148 37.1756 36.3422 37.0869 36.5262C36.1913 38.3682 36.5225 41.3021 37.8403 43.2051C38.9038 44.7382 40.5715 45.5589 42.5936 45.5589C42.7149 45.5589 42.8362 45.5541 42.9598 45.5494C43.6805 47.2452 43.9697 49.1603 44.07 51.1273C44.0677 51.1697 44.07 51.2122 44.077 51.2523C44.1074 51.8938 44.119 52.54 44.119 53.1862C44.119 53.5235 44.3896 53.7947 44.7208 53.7947C45.0543 53.7947 45.3225 53.5211 45.3225 53.1862C45.3225 52.5211 45.3109 51.8442 45.2759 51.1626C45.3458 50.1273 45.7703 49.0848 46.4607 48.1555C47.0788 48.3749 47.6876 48.4833 48.2777 48.4833C49.2456 48.4833 50.1552 48.1909 50.9529 47.606C52.5319 46.4503 53.6025 44.1862 53.3879 42.4527C53.3623 42.2498 53.2363 42.071 53.0544 41.9813ZM38.827 42.5096C37.9453 41.2384 37.5908 39.3611 37.8847 37.9247C38.5961 38.5308 39.3098 38.8115 39.9885 39.0403C41.3553 39.5026 42.2229 40.1346 42.715 41.0262C43.0719 41.6724 43.2701 42.6087 43.1955 43.4318C42.5868 42.4837 41.8077 41.6182 40.8141 40.8776C40.5459 40.6771 40.1681 40.7337 39.9721 41.0049C39.7739 41.2762 39.8298 41.6582 40.0981 41.8564C41.0497 42.5687 41.7797 43.4059 42.3395 44.3352C40.8398 44.2691 39.6106 43.637 38.827 42.5096ZM50.2463 46.6205C49.4253 47.2219 48.427 47.3988 47.3612 47.1512C47.9069 46.637 48.5437 46.1842 49.2481 45.821C49.5443 45.6677 49.6609 45.2998 49.5093 45.0002C49.3577 44.7007 48.9938 44.5828 48.6976 44.7361C47.9839 45.1063 47.3308 45.5568 46.7548 46.0686C46.9367 45.479 47.3029 44.8988 47.704 44.5356C48.3151 43.9837 49.1478 43.7337 50.3209 43.7478C50.8854 43.7549 51.4848 43.7337 52.1588 43.5025C51.9629 44.644 51.2166 45.9082 50.2463 46.6205Z" fill="#0B1F2A"/>
</svg>
