<svg width="30" height="28" viewBox="0 0 30 28" fill="none" xmlns="http://www.w3.org/2000/svg">
<path d="M1.46965 5.12207H27.9233C28.7356 5.12207 29.3929 5.7767 29.3929 6.58567C29.3929 7.39464 28.7356 8.04927 27.9233 8.04927H1.46965C0.657336 8.04927 0 7.39464 0 6.58567C0 5.7767 0.657336 5.12207 1.46965 5.12207Z" fill="#1BDDCE"/>
<path d="M10.459 0C9.91073 0 9.44573 0.401648 9.36821 0.941899L8.87305 4.3908H10.7446L11.0991 3.15588C11.3244 2.37121 12.0449 1.8295 12.8644 1.8295H16.527C17.3465 1.8295 18.067 2.37121 18.2923 3.15588L18.6468 4.3908H20.5183L20.0232 0.941899C19.9457 0.401611 19.4807 0 18.9324 0H10.459Z" fill="#1BDDCE"/>
<path d="M4.03974 2.56152C3.43123 2.56152 2.9375 3.05322 2.9375 3.65922V4.39102H5.14197V3.65922C5.14197 3.05322 4.64824 2.56152 4.03974 2.56152Z" fill="#1BDDCE"/>
<path d="M26.4525 4.39102V3.65922C26.4525 3.05322 25.9588 2.56152 25.3503 2.56152C24.7418 2.56152 24.248 3.05322 24.248 3.65922V4.39102H26.4525Z" fill="#1BDDCE"/>
<path d="M12.7879 11.7083C12.62 11.7083 12.4736 11.8212 12.432 11.9841L11.6111 15.1929C11.5522 15.4244 11.7273 15.6502 11.967 15.6502H14.0969C14.2088 15.6502 14.3136 15.7003 14.3825 15.786C14.4528 15.8718 14.48 15.9847 14.4571 16.0919L13.6361 19.9137L17.2529 14.801C17.4251 14.558 17.25 14.225 16.9529 14.225H15.4646C15.3498 14.225 15.2421 14.1707 15.1733 14.0806C15.1029 13.9906 15.08 13.8734 15.1101 13.7633L15.5421 12.1697C15.6052 11.9367 15.4302 11.708 15.1876 11.708L12.7879 11.7083Z" fill="#1BDDCE"/>
<path fill-rule="evenodd" clip-rule="evenodd" d="M27.5548 8.78125H1.83594V24.149H27.5548V8.78125ZM11.72 11.8028C11.8449 11.3168 12.2841 10.9766 12.7878 10.9766H15.1875C15.9137 10.9766 16.4418 11.6627 16.2524 12.3617L15.9438 13.4937H16.9527C17.8454 13.4937 18.3679 14.4956 17.854 15.2231L13.2011 21.798C13.1007 21.9409 12.9141 21.9924 12.7533 21.9238C12.594 21.8537 12.505 21.6808 12.5409 21.5107L13.6432 16.3822H11.9669C11.2478 16.3822 10.7211 15.7062 10.8991 15.013L11.72 11.8028Z" fill="#1BDDCE"/>
<path d="M27.9233 24.8809H1.46965C0.657336 24.8809 0 25.5355 0 26.3445C0 27.1534 0.657336 27.8081 1.46965 27.8081H27.9233C28.7356 27.8081 29.3929 27.1534 29.3929 26.3445C29.3929 25.5355 28.7356 24.8809 27.9233 24.8809Z" fill="#1BDDCE"/>
</svg>
