<svg width="91" height="91" viewBox="0 0 91 91" fill="none" xmlns="http://www.w3.org/2000/svg">
<path d="M-1.98887e-06 45.5L22.75 6.09584L68.25 6.09584L91 45.5L68.25 84.9042L22.75 84.9042L-1.98887e-06 45.5Z" fill="#1BDDCE" fill-opacity="0.32"/>
<path d="M40.6344 60.4948C39.4462 60.5522 38.294 60.6075 37.7959 60.3523C37.6672 60.2779 37.5026 60.3055 37.4013 60.4161L34.6493 63.1872C34.0119 63.8294 32.9778 63.8294 32.3384 63.1872L27.1363 57.9448L27.1384 57.947C26.5011 57.3026 26.5011 56.2626 27.1384 55.6183L29.8904 52.845H29.8883C29.998 52.7429 30.0234 52.5771 29.9516 52.4473C29.5127 51.5839 29.1433 50.6885 28.85 49.7656C28.8078 49.6209 28.6748 49.5231 28.525 49.5316H24.6355C23.7323 49.5295 23.0021 48.7958 23 47.8856V40.472C23 39.5618 23.7323 38.8238 24.6355 38.8238H28.525C28.6748 38.8302 28.8078 38.7345 28.85 38.5899C29.1433 37.6669 29.5127 36.7716 29.9516 35.9124C30.0255 35.7784 30.0002 35.6125 29.8883 35.5104L27.1363 32.7372H27.1384C26.5011 32.0928 26.5011 31.0528 27.1384 30.4085L32.3405 25.1662H32.3384C32.9779 24.526 34.012 24.526 34.6493 25.1662L37.4013 27.9394C37.5026 28.0521 37.6651 28.0776 37.7959 28.0053C38.6506 27.563 39.5412 27.1908 40.4571 26.893C40.5985 26.8526 40.6956 26.7165 40.6893 26.5677V22.6482C40.6914 21.7379 41.4216 21.0021 42.3227 21H49.6794C50.5806 21 51.3128 21.7359 51.3149 22.6439V26.5655C51.3065 26.7144 51.4036 26.8505 51.5492 26.8909C52.463 27.1865 53.3514 27.5587 54.2041 28.0032C54.337 28.0755 54.5017 28.0479 54.603 27.9373L57.3549 25.164C57.9923 24.5218 59.0264 24.5218 59.6658 25.164L64.8679 30.4063C65.5031 31.0486 65.5031 32.0907 64.8679 32.7351L62.1159 35.5083C62.0062 35.6104 61.9787 35.7763 62.0505 35.9081C62.4895 36.7694 62.8588 37.6648 63.1521 38.5856C63.1943 38.7303 63.3294 38.826 63.4771 38.8217H67.3666C68.2698 38.8238 69 39.5597 69 40.4699V47.8856C68.9979 48.7937 68.2677 49.5295 67.3666 49.5317H63.4771C63.3294 49.5253 63.1943 49.621 63.1521 49.7656C62.8588 50.6886 62.4916 51.5861 62.0505 52.4474C61.9787 52.5792 62.0062 52.743 62.1159 52.8451L64.8679 55.6183C65.5031 56.2606 65.5031 57.3027 64.8679 57.947L59.6658 63.1872C59.0263 63.8295 57.9943 63.8295 57.3549 63.1872L54.5966 60.4097L54.5945 60.4118C53.9382 60.3098 53.2692 60.2906 52.6065 60.3523C52.2267 60.5097 51.8151 60.5756 51.4078 60.5437C51.336 60.6394 51.2664 60.7308 51.1989 60.8202H51.1968C51.3149 61.0137 51.3782 61.237 51.3782 61.4646V63.3467C51.3782 63.5508 51.3276 63.7529 51.2305 63.9315C51.3276 64.1101 51.3782 64.31 51.3782 64.5142V66.4006C51.3761 67.0535 50.8696 67.5936 50.2218 67.634C50.0044 68.3316 49.5232 68.9143 48.8795 69.2567C47.035 70.2478 44.8213 70.2478 42.9767 69.2567C42.3351 68.9143 41.8539 68.3316 41.6387 67.634C41.339 67.6149 41.0562 67.4852 40.843 67.2704C40.6151 67.0407 40.4842 66.7281 40.4842 66.4005V64.5142C40.4842 64.31 40.5349 64.1101 40.6299 63.9293C40.5349 63.7507 40.4842 63.5508 40.4842 63.3466V61.4645C40.4842 61.1753 40.5855 60.8967 40.7691 60.6776C40.7248 60.616 40.6826 60.5564 40.6383 60.4948L40.6344 60.4948ZM30.2301 43.7153C30.9518 43.7153 31.6039 44.1555 31.8783 44.8297C32.1526 45.5039 31.9943 46.278 31.4794 46.7905L31.931 47.8433L33.7586 48.6854H35.3161H35.314C35.3773 47.5944 35.6073 46.5204 35.9977 45.4996L33.8768 44.5788C33.7565 44.5277 33.6531 44.4405 33.5834 44.3278L32.8913 43.407V43.4048C32.0661 43.6452 31.1882 43.2581 30.802 42.484C30.4158 41.7098 30.631 40.7699 31.3169 40.2446C32.0006 39.7193 32.9588 39.7618 33.5961 40.3424C34.2335 40.9251 34.3686 41.88 33.919 42.6201L34.5416 43.4495L36.5359 44.315C37.302 42.8603 38.3888 41.6035 39.7141 40.6401L38.5999 39.5512L37.5805 39.2662C37.245 40.0574 36.4008 40.4976 35.5651 40.3168C34.7315 40.1339 34.1406 39.3832 34.1596 38.5219C34.1786 37.6606 34.799 36.9353 35.6411 36.7907C36.4831 36.644 37.3083 37.1204 37.61 37.9264L39.0873 38.3411C39.1992 38.3666 39.3005 38.424 39.3807 38.5027L40.8347 39.9276V39.9297C42.2044 39.1748 43.7239 38.7345 45.2834 38.6388V36.1102C44.4836 35.7955 44.0215 34.9533 44.1797 34.1047C44.338 33.254 45.0745 32.6394 45.9313 32.6394C46.7881 32.6394 47.5247 33.254 47.683 34.1047C47.8412 34.9533 47.3791 35.7955 46.5792 36.1102V38.6388C48.8015 38.7728 50.9266 39.6086 52.6507 41.0292L53.5159 40.068L52.6275 38.5027C51.777 38.6325 50.956 38.1327 50.6732 37.3139C50.3904 36.4951 50.7281 35.5912 51.4731 35.1596C52.2202 34.73 53.1635 34.8959 53.7207 35.5573C54.2778 36.2165 54.2905 37.1821 53.7481 37.8562L54.6282 39.4066L56.0864 39.2195L56.0885 39.2174C56.2954 38.3794 57.0657 37.8074 57.9224 37.8584C58.7792 37.9094 59.4778 38.5687 59.5854 39.4258C59.6952 40.2828 59.1802 41.0973 58.3635 41.3611C57.5468 41.6269 56.6583 41.2675 56.2489 40.5061L54.6788 40.7082L53.5962 41.9097C54.0478 42.3819 54.4572 42.8944 54.816 43.4431L56.9348 42.3159V42.3138C57.1501 42.2032 57.4096 42.2202 57.608 42.3606L59.5939 43.5771L60.1891 42.9093C59.7965 42.1394 60.0055 41.1973 60.685 40.6677C61.3624 40.1382 62.3205 40.1722 62.9621 40.7486C63.6015 41.3228 63.745 42.2777 63.3019 43.0178C62.8587 43.7579 61.9554 44.0747 61.1514 43.7727L60.1996 44.8467C59.9928 45.0785 59.6509 45.1296 59.385 44.968L57.2155 43.6388L55.4597 44.5746C56.1899 46.0548 56.5676 47.6859 56.5655 49.3405C56.5655 53.3153 54.5986 56.3223 52.5347 59.0657C53.2818 58.9636 55.0208 58.9998 55.5167 59.4953L58.2686 62.2685C58.4016 62.4004 58.6147 62.4004 58.7477 62.2685L63.9519 57.0262C64.0828 56.8923 64.0828 56.6753 63.9519 56.5414L61.1999 53.7681H61.202C60.6977 53.2641 60.5774 52.4921 60.9024 51.8562C61.3097 51.0566 61.6516 50.2272 61.9238 49.3722C62.139 48.6896 62.7679 48.2281 63.4791 48.2281H67.3686C67.5543 48.2281 67.7062 48.0771 67.7062 47.8878V40.472C67.7062 40.2828 67.5543 40.1296 67.3686 40.1275H63.4791C62.7701 40.1318 62.1411 39.6681 61.928 38.9876C61.6515 38.1327 61.3076 37.3011 60.9003 36.5036C60.5753 35.8677 60.6956 35.0936 61.1999 34.5896L63.9519 31.8163C64.0807 31.6824 64.0807 31.4676 63.9519 31.3336L58.7519 26.0891C58.619 25.9573 58.4037 25.9573 58.2729 26.0891L55.5209 28.8624V28.8603C55.0207 29.3685 54.2504 29.4897 53.6215 29.1623C52.8259 28.7539 52.0008 28.4094 51.1524 28.1329C50.4771 27.9139 50.0191 27.2801 50.0212 26.5656V22.6461C50.0191 22.4589 49.8671 22.3058 49.6793 22.3058H42.3226C42.1369 22.3058 41.9849 22.4589 41.9849 22.6461V26.5656C41.9849 27.2823 41.527 27.916 40.8495 28.1329C40.0011 28.4094 39.1781 28.7539 38.3825 29.1623C37.7536 29.4919 36.9854 29.3685 36.4852 28.8603L33.7375 26.0892C33.6025 25.9573 33.3893 25.9573 33.2543 26.0892L28.0521 31.3336H28.0543C27.9234 31.4676 27.9234 31.6824 28.0543 31.8164L30.8062 34.5896H30.8041C31.3085 35.0937 31.4267 35.8678 31.1017 36.5036C30.6965 37.3033 30.3546 38.1327 30.0782 38.9876C29.8629 39.6682 29.234 40.1297 28.5249 40.1276H24.6355C24.4476 40.1297 24.2957 40.2828 24.2936 40.4721V47.8857C24.2957 48.0749 24.4476 48.2259 24.6355 48.2259H28.5249C29.2361 48.2238 29.865 48.6874 30.0782 49.3701C30.3546 50.2229 30.6965 51.0545 31.1017 51.8541C31.4267 52.4879 31.3064 53.2619 30.8041 53.766L28.0521 56.5392H28.0543C27.9234 56.6732 27.9234 56.8901 28.0543 57.0241L33.2543 62.2685C33.3872 62.4004 33.6025 62.4004 33.7354 62.2685L36.4874 59.4953C36.9855 58.9891 37.7558 58.8679 38.3846 59.1976C38.8215 59.272 39.2668 59.2848 39.7078 59.2358C37.703 56.5328 35.5525 53.596 35.3161 49.9913L33.6215 49.9935C33.5075 49.9913 33.3978 49.9637 33.3007 49.9084L31.165 48.9237C31.0194 48.8557 30.9033 48.7366 30.84 48.5877V48.5898L30.2913 47.3074H30.2934C29.3079 47.3244 28.4954 46.5354 28.4785 45.5423C28.4616 44.5491 29.2467 43.7324 30.2301 43.7133L30.2301 43.7153ZM30.5719 45.1614C30.4327 45.0232 30.2237 44.9807 30.0443 45.0572C29.8628 45.1338 29.7447 45.3124 29.7447 45.5102C29.7447 45.708 29.8628 45.8866 30.0443 45.9611C30.2237 46.0376 30.4327 45.9972 30.5719 45.859C30.6648 45.7654 30.7176 45.6399 30.7176 45.5102C30.7176 45.3783 30.6648 45.2529 30.5719 45.1614ZM62.1204 41.7438C61.9811 41.6014 61.7701 41.5588 61.5864 41.6354C61.405 41.7119 61.2847 41.8927 61.2847 42.0905C61.2847 42.2904 61.405 42.4712 61.5864 42.5477C61.7701 42.6243 61.9811 42.5818 62.1204 42.4393C62.3103 42.2479 62.3103 41.9352 62.1204 41.7438ZM58.1655 39.3003C58.0241 39.1599 57.8131 39.1174 57.6316 39.1939C57.448 39.2684 57.3298 39.4491 57.3298 39.649C57.3298 39.849 57.448 40.0276 57.6316 40.1042C57.8131 40.1807 58.0241 40.1382 58.1655 39.9978C58.3554 39.8043 58.3554 39.4938 58.1655 39.3003ZM52.7078 36.376C52.5685 36.2378 52.3596 36.1974 52.1781 36.274C51.9987 36.3505 51.8805 36.5292 51.8805 36.7248C51.8805 36.9226 51.9987 37.1012 52.1781 37.1778C52.3596 37.2544 52.5685 37.214 52.7078 37.0736C52.8007 36.9821 52.8534 36.8567 52.8534 36.7248C52.8534 36.5951 52.8007 36.4696 52.7078 36.376ZM46.2755 34.0899C46.1341 33.9495 45.9251 33.907 45.7415 33.9835C45.5579 34.0601 45.4398 34.2387 45.4398 34.4386C45.4398 34.6385 45.5579 34.8193 45.7415 34.8959C45.9251 34.9703 46.1341 34.9299 46.2755 34.7874C46.4654 34.596 46.4654 34.2834 46.2755 34.0899ZM36.285 38.2093C36.1457 38.0689 35.9368 38.0285 35.7553 38.1051C35.5759 38.1816 35.4578 38.3603 35.4578 38.558C35.4578 38.7558 35.5759 38.9323 35.7553 39.0089C35.9368 39.0855 36.1457 39.0451 36.285 38.9068C36.3779 38.8132 36.4306 38.6878 36.4306 38.558C36.4306 38.4262 36.3779 38.3007 36.285 38.2093ZM32.7459 41.3291C32.6066 41.1909 32.3977 41.1484 32.2162 41.2249C32.0347 41.3015 31.9165 41.4801 31.9165 41.6779C31.9165 41.8757 32.0347 42.0543 32.2162 42.1288C32.3977 42.2053 32.6066 42.1649 32.7459 42.0246C32.8366 41.9331 32.8894 41.8076 32.8894 41.6779C32.8894 41.5461 32.8366 41.4227 32.7459 41.3291ZM50.085 64.5846L41.7785 64.5825V66.3285H50.0828L50.085 64.5846ZM48.8082 67.6343L43.0534 67.6322C43.5915 68.3659 44.8979 68.6934 45.9298 68.6934C46.9618 68.6934 48.266 68.3659 48.8063 67.6322L48.8082 67.6343ZM42.9496 51.8604L44.2728 51.8668V50.5334H44.2707C44.2707 48.9809 42.6415 48.9298 41.9851 49.5934V49.5955C41.6222 49.9847 41.5251 50.5546 41.734 51.0438C41.9429 51.535 42.4199 51.8541 42.9496 51.8604ZM43.0045 53.1619H43.0024C42.9855 53.1641 42.9665 53.1641 42.9496 53.1619C42.2553 53.1619 41.5884 52.8855 41.0988 52.3899C40.6071 51.8965 40.3306 51.2266 40.3306 50.5269C40.3306 47.9876 43.3991 47.1179 44.8426 48.6342C45.3154 49.1509 45.5729 49.8294 45.5644 50.5312V51.8689H46.3009V50.5397V50.5418C46.2988 49.4742 46.9361 48.5129 47.9133 48.1046C48.8925 47.6984 50.0173 47.9238 50.7644 48.6767C51.5136 49.4295 51.7373 50.5652 51.3321 51.5498C50.9269 52.5345 49.973 53.1768 48.9157 53.1768H47.5925V60.2288H50.0278C52.4443 57.0133 55.2764 53.7914 55.2764 49.3401H55.2743C55.2743 45.9757 53.4931 42.8684 50.604 41.1861C47.7127 39.5061 44.1527 39.5061 41.2634 41.1861C38.3722 42.8683 36.5931 45.9755 36.5931 49.3401C36.5931 53.5659 39.7397 56.9453 42.0357 60.2288H44.2727V53.1637L43.0045 53.1619ZM46.3009 60.2287L46.2988 53.1679H45.5602V60.2287H46.3009ZM47.5925 51.8689H48.9136H48.9115C49.4475 51.8689 49.9287 51.5457 50.1334 51.048C50.3381 50.5504 50.2262 49.9783 49.8485 49.5955C49.4707 49.2148 48.9009 49.1021 48.4071 49.3084C47.9132 49.5147 47.5925 49.9995 47.5925 50.5376L47.5925 51.8689ZM50.0849 61.5305H41.7784V63.2765H50.0827L50.0849 61.5305Z" fill="#0B1F2A"/>
</svg>
