<svg width="33" height="33" viewBox="0 0 33 33" fill="none" xmlns="http://www.w3.org/2000/svg">
<path d="M5.89286 0C5.58332 -1.75553e-08 5.2768 0.0609809 4.99082 0.179439C4.70484 0.297898 4.44499 0.471415 4.22611 0.690298C4.00722 0.909181 3.8336 1.16911 3.71514 1.45509C3.59668 1.74107 3.53572 2.04764 3.53572 2.35718H0V3.53564C0.312579 3.53564 0.612355 3.65989 0.833382 3.88092C1.05441 4.10195 1.17858 4.40165 1.17858 4.71423C1.17858 5.02681 1.05441 5.32664 0.833382 5.54767C0.612355 5.7687 0.312579 5.89282 0 5.89282V7.07141H3.53572V25.9286H0V27.1072C0.311544 27.1088 0.609793 27.2335 0.829535 27.4544C1.04928 27.6752 1.17263 27.9741 1.17263 28.2856C1.17263 28.5972 1.04928 28.8962 0.829535 29.117C0.609793 29.3379 0.311544 29.4627 0 29.4642V30.6428H3.53572C3.53573 31.268 3.78407 31.8675 4.22612 32.3096C4.66817 32.7516 5.26772 33 5.89286 33H27.1072C27.7323 33 28.3319 32.7516 28.7739 32.3096C29.216 31.8675 29.4643 31.268 29.4643 30.6428H33V29.4642C32.6885 29.4627 32.3902 29.3379 32.1705 29.117C31.9508 28.8962 31.8274 28.5972 31.8274 28.2856C31.8274 27.9741 31.9508 27.6752 32.1705 27.4544C32.3902 27.2335 32.6885 27.1088 33 27.1072V25.9286H29.4643V7.07141H33V5.89282C32.6875 5.89282 32.3877 5.7687 32.1667 5.54767C31.9456 5.32664 31.8215 5.02681 31.8215 4.71423C31.8215 4.40165 31.9456 4.10195 32.1667 3.88092C32.3877 3.65989 32.6875 3.53564 33 3.53564V2.35718H29.4643C29.4643 2.04764 29.4034 1.74107 29.2849 1.45509C29.1664 1.16911 28.9928 0.909181 28.7739 0.690298C28.5551 0.471415 28.2952 0.297898 28.0092 0.179439C27.7232 0.0609809 27.4167 -1.75553e-08 27.1072 0H5.89286ZM2.04178 3.53564H3.53572V5.89282H2.04178C2.24867 5.53449 2.35758 5.128 2.35758 4.71423C2.35758 4.30046 2.24867 3.89397 2.04178 3.53564ZM7.07144 3.53564H25.9286V9.42859H7.07144V3.53564ZM29.4643 3.53564H30.9583C30.7514 3.89397 30.6425 4.30046 30.6425 4.71423C30.6425 5.128 30.7514 5.53449 30.9583 5.89282H29.4643V3.53564ZM14.6263 13.1231L18.1942 16.0165C18.272 16.08 18.3246 16.1692 18.3425 16.268C18.3605 16.3667 18.3426 16.4687 18.2921 16.5555C18.2417 16.6423 18.1619 16.7083 18.0672 16.7416C17.9724 16.7748 17.8689 16.7732 17.7753 16.7371C17.0995 16.4758 16.3599 16.4284 15.6563 16.6013C14.9527 16.7741 14.3192 17.1589 13.8416 17.7036C13.3639 18.2483 13.0651 18.9267 12.9856 19.6469C12.9061 20.367 13.0497 21.094 13.3971 21.7298L12.3635 22.2962C12.0199 21.6672 11.8242 20.9683 11.7913 20.2523C11.7584 19.5364 11.8892 18.8222 12.1737 18.1644C12.4582 17.5066 12.889 16.9224 13.4332 16.4561C13.9775 15.9898 14.6209 15.6537 15.3145 15.4734L14.6263 13.1231ZM20.6365 17.7752C20.9802 18.4042 21.1758 19.1031 21.2087 19.8191C21.2416 20.535 21.1108 21.2492 20.8263 21.907C20.5418 22.5648 20.111 23.149 19.5668 23.6153C19.0226 24.0816 18.3791 24.4177 17.6855 24.598L18.3738 26.9483L14.8058 24.0548C14.728 23.9913 14.6755 23.9023 14.6575 23.8035C14.6396 23.7047 14.6574 23.6026 14.7079 23.5158C14.7584 23.429 14.8381 23.3631 14.9329 23.3298C15.0276 23.2966 15.1311 23.2982 15.2248 23.3343C15.9005 23.5956 16.6402 23.643 17.3437 23.4701C18.0473 23.2973 18.6808 22.9124 19.1584 22.3677C19.6361 21.823 19.9349 21.1447 20.0144 20.4246C20.0939 19.7044 19.9503 18.9774 19.603 18.3416L20.6365 17.7752ZM2.04178 27.1072H3.53572V29.4642H2.04178C2.24866 29.1059 2.35757 28.6994 2.35757 28.2856C2.35757 27.8719 2.24866 27.4655 2.04178 27.1072ZM29.4643 27.1072H30.9583C30.7514 27.4655 30.6425 27.8719 30.6425 28.2856C30.6425 28.6994 30.7514 29.1059 30.9583 29.4642H29.4643V27.1072Z" fill="#1BDDCE"/>
</svg>
