<svg width="54" height="54" viewBox="0 0 54 54" fill="none" xmlns="http://www.w3.org/2000/svg">
<path fill-rule="evenodd" clip-rule="evenodd" d="M42.8742 34.4367C43.3941 38.5532 36.7913 37.49 33.3969 36.4758C33.7463 34.8267 34.0063 33.022 34.1618 31.1107C35.7385 30.022 37.1725 28.8927 38.4232 27.7677C38.6277 27.9637 38.8259 28.1597 39.0176 28.3536C39.2712 28.0639 39.5673 27.8167 39.8955 27.6143C39.6909 27.4055 39.48 27.1966 39.2626 26.9879C47.7685 19.0362 44.2911 12.9849 33.1388 16.3793C32.1736 11.8537 28.805 5.20997 24.6095 8.80453C24.9674 8.98351 25.2934 9.21788 25.5768 9.49486C28.8687 7.08078 31.225 13.2832 32.0432 16.7156C30.443 17.2376 28.7491 17.9152 27.0147 18.7397C25.2804 17.9173 23.5886 17.2397 21.9885 16.7156C22.0609 16.4237 22.1334 16.1382 22.2122 15.8569C21.8287 15.7824 21.4643 15.646 21.1298 15.4628C21.0467 15.7611 20.9679 16.0658 20.8911 16.3768C9.75183 12.9891 6.25328 19.0232 14.7673 26.9876C11.9164 29.5785 8.41165 34.5367 10.7169 37.0213C10.8319 36.5696 11.0258 36.1519 11.2858 35.7812C10.2673 33.9105 13.4207 29.7043 15.6068 27.7679C16.8597 28.8929 18.2915 30.0201 19.8682 31.1089C20.0237 33.0222 20.2837 34.829 20.6331 36.476C19.7211 36.7424 18.8476 36.9533 18.023 37.1046C18.1061 37.471 18.1359 37.8716 18.1039 38.253C18.9839 38.0953 19.9172 37.8759 20.8909 37.5947C23.5265 48.9385 30.498 48.9554 33.1402 37.5968C37.5657 39.0392 45.0399 39.4142 43.9533 33.9363C43.6252 34.1557 43.263 34.3262 42.8731 34.437L42.8742 34.4367ZM34.2576 29.6384C34.3471 27.9125 34.3471 26.061 34.2576 24.3351C35.404 25.1597 36.5737 26.0886 37.5772 26.9878C36.5822 27.8763 35.47 28.7669 34.2576 29.6384ZM38.4253 26.2058C37.1319 25.0425 35.649 23.8898 34.1617 22.8628C34.0062 20.9516 33.7463 19.1447 33.3969 17.4977C43.4813 14.4913 46.0808 18.9635 38.4253 26.2058ZM19.7734 29.6405C18.561 28.7669 17.4467 27.8763 16.4516 26.9857C17.4467 26.0972 18.5589 25.2066 19.7734 24.333C19.6817 26.0631 19.6817 27.9125 19.7734 29.6405ZM19.8714 22.8627C18.2926 23.9536 16.8607 25.0828 15.6079 26.2079C7.96494 18.9784 10.5347 14.4893 20.6341 17.4975C20.2741 19.1978 20.0163 21.0644 19.8714 22.8627ZM32.2952 17.8385C32.568 19.1446 32.7832 20.5552 32.9323 22.0424C31.4813 21.1027 29.8769 20.1759 28.3343 19.3897C29.6979 18.776 31.0275 18.2562 32.2952 17.8385ZM21.7336 17.8385C23.0034 18.2561 24.3309 18.7761 25.6945 19.3897C24.1519 20.1781 22.5475 21.1006 21.0965 22.0424C21.2371 20.6362 21.4566 19.1638 21.7336 17.8385ZM21.0965 31.9288C22.5475 32.8705 24.1519 33.7974 25.6945 34.5836C24.3777 35.178 23.0674 35.6937 21.7336 36.1348C21.463 34.8266 21.2478 33.4159 21.0965 31.9288ZM21.9871 37.2555C23.698 36.6951 25.3301 36.0303 27.0156 35.2335C28.7499 36.0559 30.4417 36.7335 32.0418 37.2555C29.6065 47.4915 24.4291 47.504 21.9871 37.2555ZM32.2951 36.1326C31.0274 35.715 29.6978 35.1972 28.3363 34.5836C29.8768 33.7974 31.4812 32.8727 32.9322 31.9309C32.7831 33.416 32.5679 34.8265 32.2951 36.1326ZM33.0558 30.4757C31.1893 31.7349 29.0373 32.9792 27.0132 33.9636C24.9891 32.9771 22.8392 31.737 20.9728 30.4757C20.8152 28.232 20.813 25.7391 20.9707 23.4976C22.8372 22.2405 24.987 20.9919 27.0133 20.0076C29.0374 20.992 31.1873 22.2342 33.0536 23.4955C33.2156 25.7413 33.2156 28.2299 33.0558 30.4757ZM16.2039 39.7844C13.743 42.1687 10.1313 38.5593 12.5157 36.0962C14.9702 33.7098 18.5904 37.3277 16.2039 39.7844ZM44.4613 30.8182C44.4464 34.2273 39.2581 34.2316 39.2453 30.8182C39.3029 27.3899 44.3995 27.3899 44.4613 30.8182ZM22.9392 9.56233C26.3675 9.62199 26.3675 14.7186 22.9392 14.7783C19.5301 14.7633 19.5258 9.5751 22.9392 9.56233ZM46.0933 7.90676C29.4269 -9.0171 -0.0256197 3.02962 1.67251e-05 26.9852C1.67251e-05 41.8423 12.1577 54 27.0148 54C50.9702 54.0234 63.0172 24.5688 46.0933 7.90676ZM27.0148 50.7911C5.9744 50.9146 -4.72582 24.7286 10.2017 10.1715C24.7605 -4.75382 50.9468 5.94634 50.8213 26.9846C50.8192 40.0821 40.1123 50.7911 27.0148 50.7911Z" fill="#0B1F2A"/>
</svg>
