<svg width="91" height="91" viewBox="0 0 91 91" fill="none" xmlns="http://www.w3.org/2000/svg">
<path d="M-1.98887e-06 45.5L22.75 6.09584L68.25 6.09584L91 45.5L68.25 84.9042L22.75 84.9042L-1.98887e-06 45.5Z" fill="#1BDDCE" fill-opacity="0.32"/>
<path d="M23.8826 46.1654H23.7803C23.7008 46.1568 23.6269 46.137 23.5559 46.1086C23.5332 46.1001 23.519 46.0945 23.4991 46.0803C23.411 46.0378 23.3258 45.9867 23.2604 45.9215C23.2462 45.9073 23.2377 45.8931 23.2235 45.879C23.1951 45.8421 23.1582 45.8137 23.1354 45.7712L19.1496 39.7823C18.8741 39.3683 18.9905 38.8097 19.4053 38.5346C19.8201 38.2595 20.3797 38.3758 20.6553 38.7898L23.1497 42.5357C24.5161 30.9949 34.3715 22 46.2973 22C56.4049 22 65.3089 28.4398 68.4566 38.0132C68.61 38.4839 68.3543 38.9944 67.8827 39.1531C67.4111 39.3062 66.8997 39.051 66.7407 38.5803C63.8401 29.7444 55.6214 23.8063 46.2978 23.8063C35.1785 23.8063 25.9996 32.2706 24.8941 43.0861L28.4055 39.7826C28.7691 39.4423 29.343 39.4565 29.6867 39.8195C30.0276 40.1824 30.0134 40.7553 29.6498 41.0983L24.5077 45.9331C24.4566 45.9842 24.3828 46.0125 24.3259 46.0494C24.2975 46.0721 24.2691 46.0919 24.2322 46.1061C24.1242 46.1487 24.0077 46.1798 23.8913 46.1798L23.8826 46.1654ZM73.4448 50.7619L69.459 44.773C69.4305 44.7362 69.4021 44.6993 69.3709 44.6653C69.3567 44.6511 69.3482 44.6369 69.334 44.6227C69.2601 44.5575 69.1805 44.498 69.0953 44.4639C69.0726 44.4554 69.0584 44.4413 69.0385 44.4356C68.9646 44.4072 68.8936 44.3845 68.8141 44.3789H68.7402H68.7118H68.6891C68.5811 44.3789 68.4789 44.4016 68.3766 44.4441C68.3624 44.4441 68.3539 44.4526 68.3396 44.4583C68.2459 44.5008 68.1664 44.5518 68.084 44.6171L62.9419 49.4519C62.5783 49.7922 62.5641 50.3678 62.905 50.7307C63.2459 51.0937 63.8226 51.1079 64.1862 50.7676L67.6976 47.4641C66.5925 58.2789 57.4219 66.7439 46.2939 66.7439C36.9703 66.7439 28.7514 60.8061 25.851 51.9699C25.6976 51.4992 25.1806 51.2355 24.709 51.3971C24.2374 51.5502 23.9732 52.0663 24.1351 52.537C27.2828 62.1185 36.1861 68.5502 46.2944 68.5502C58.2202 68.5502 68.0842 59.564 69.442 48.0203L71.9364 51.7662C72.1097 52.0271 72.3938 52.1717 72.6921 52.1717C72.8654 52.1717 73.033 52.1207 73.1949 52.0186C73.6097 51.7435 73.7262 51.1849 73.4506 50.7709L73.4448 50.7619ZM50.8339 31.8937V33.6716H51.9532C53.618 33.6716 54.9646 35.0214 54.9646 36.6774V58.013C54.9646 59.6748 53.6123 61.0188 51.9532 61.0188H40.6296C38.9705 61.0188 37.6182 59.669 37.6182 58.013V36.6774C37.6182 35.0214 38.9705 33.6716 40.6296 33.6716H41.7489V31.8937C41.7489 30.5807 42.8256 29.506 44.141 29.506H48.4307C49.7461 29.506 50.8228 30.5807 50.8228 31.8937H50.8339ZM43.5611 33.6744H49.0242V31.8965C49.0242 31.5761 48.7628 31.3095 48.4361 31.3095H44.1464C43.8254 31.3095 43.5583 31.5704 43.5583 31.8965V33.6744H43.5611ZM51.956 35.4807H40.6324C39.9705 35.4807 39.425 36.0167 39.425 36.6859V58.0216C39.425 58.6908 39.9619 59.2268 40.6324 59.2268H51.956C52.6265 59.2268 53.1635 58.6909 53.1635 58.0216V36.6859C53.1635 36.0252 52.6265 35.4807 51.956 35.4807ZM48.5583 46.4488H45.7571L49.3054 41.3162C49.5895 40.9022 49.4872 40.3436 49.0725 40.06C48.6662 39.7765 48.0981 39.8785 47.8139 40.2926L43.2912 46.84C43.1008 47.1151 43.0809 47.4724 43.2344 47.7701C43.3878 48.0678 43.7003 48.2578 44.0355 48.2578H46.8367L43.2884 53.3903C43.0043 53.8043 43.1066 54.3629 43.5213 54.6466C43.6747 54.7543 43.8566 54.8054 44.0299 54.8054C44.314 54.8054 44.598 54.6664 44.7713 54.414L49.2941 47.8665C49.4844 47.5915 49.5043 47.2342 49.3509 46.9365C49.1975 46.6387 48.885 46.4488 48.5497 46.4488H48.5583Z" fill="#0B1F2A"/>
</svg>
