<svg width="54" height="54" viewBox="0 0 54 54" fill="none" xmlns="http://www.w3.org/2000/svg">
<path d="M10.7156 8.04336C11.0909 8.04336 11.4507 7.92337 11.7161 7.70978C11.9814 7.4962 12.1305 7.20652 12.1305 6.90447V1.13889C12.1305 0.836837 11.9814 0.547156 11.7161 0.333573C11.4507 0.11999 11.0909 0 10.7156 0C10.3404 0 9.98051 0.11999 9.71518 0.333573C9.44984 0.547156 9.30078 0.836837 9.30078 1.13889V6.90447C9.30078 7.20652 9.44985 7.4962 9.71518 7.70978C9.98051 7.92337 10.3404 8.04336 10.7156 8.04336Z" fill="#0B1F2A"/>
<path d="M19.3589 8.04335C21.6646 8.04335 23.4708 6.27692 23.4708 4.02168C23.4708 1.76643 21.6646 0 19.3589 0C17.0533 0 15.2471 1.76643 15.2471 4.02168C15.2471 6.27692 17.0533 8.04335 19.3589 8.04335ZM19.3589 2.27777C19.9641 2.27777 20.6411 3.0235 20.6411 4.02167C20.6411 5.01984 19.9641 5.76557 19.3589 5.76557C18.7537 5.76557 18.0768 5.01987 18.0768 4.02167C18.0768 3.02347 18.7538 2.27777 19.3589 2.27777Z" fill="#0B1F2A"/>
<path d="M28.0027 8.04336C28.378 8.04336 28.7378 7.92337 29.0032 7.70978C29.2685 7.4962 29.4176 7.20652 29.4176 6.90447V1.13889C29.4176 0.836837 29.2685 0.547156 29.0032 0.333573C28.7378 0.11999 28.378 0 28.0027 0C27.6275 0 27.2676 0.11999 27.0023 0.333573C26.737 0.547156 26.5879 0.836837 26.5879 1.13889V6.90447C26.5879 7.20652 26.737 7.4962 27.0023 7.70978C27.2676 7.92337 27.6275 8.04336 28.0027 8.04336Z" fill="#0B1F2A"/>
<path d="M36.6465 8.04335C38.9522 8.04335 40.7584 6.27692 40.7584 4.02168C40.7584 1.76643 38.9522 0 36.6465 0C34.3409 0 32.5347 1.76643 32.5347 4.02168C32.5347 6.27692 34.3409 8.04335 36.6465 8.04335ZM36.6465 2.27777C37.2517 2.27777 37.9287 3.0235 37.9287 4.02167C37.9287 5.01984 37.2517 5.76557 36.6465 5.76557C36.0413 5.76557 35.3644 5.01987 35.3644 4.02167C35.3644 3.02347 36.0414 2.27777 36.6465 2.27777Z" fill="#0B1F2A"/>
<path d="M45.2903 8.04336C45.6656 8.04336 46.0254 7.92337 46.2908 7.70978C46.5561 7.4962 46.7052 7.20652 46.7052 6.90447V1.13889C46.7052 0.836837 46.5561 0.547156 46.2908 0.333573C46.0254 0.11999 45.6656 0 45.2903 0C44.9151 0 44.5552 0.11999 44.2899 0.333573C44.0246 0.547156 43.8755 0.836837 43.8755 1.13889V6.90447C43.8755 7.20652 44.0246 7.4962 44.2899 7.70978C44.5552 7.92337 44.9151 8.04336 45.2903 8.04336Z" fill="#0B1F2A"/>
<path d="M38.8916 41.5049L35.7981 40.8161C35.513 40.1808 35.1394 39.5833 34.6871 39.0388L35.597 36.1876C35.6484 36.0263 35.6401 35.8536 35.5732 35.6973C35.5064 35.541 35.385 35.4102 35.2287 35.3261L32.2794 33.7394C32.123 33.6553 31.9408 33.6227 31.7621 33.647C31.5834 33.6712 31.4187 33.7508 31.2945 33.873L29.1031 36.0294C28.3716 35.9293 27.6283 35.9292 26.8968 36.0294L24.7053 33.873C24.5811 33.7509 24.4164 33.6712 24.2378 33.647C24.0591 33.6228 23.8768 33.6554 23.7205 33.7395L20.7712 35.3261C20.6148 35.4103 20.4934 35.541 20.4266 35.6973C20.3598 35.8536 20.3514 36.0263 20.4029 36.1876L21.3128 39.0387C20.8604 39.5833 20.4869 40.1808 20.2017 40.8161L17.1082 41.5049C16.9326 41.544 16.7763 41.6371 16.6644 41.7692C16.5525 41.9013 16.4917 42.0646 16.4917 42.2328V45.4061C16.4917 45.5744 16.5525 45.7377 16.6644 45.8698C16.7763 46.0019 16.9326 46.095 17.1082 46.1341L20.2017 46.8229C20.4869 47.4581 20.8605 48.0557 21.3128 48.6002L20.4029 51.4514C20.3514 51.6127 20.3598 51.7854 20.4266 51.9417C20.4934 52.098 20.6148 52.2287 20.7712 52.3129L23.7205 53.8995C23.8769 53.9837 24.0591 54.0162 24.2378 53.992C24.4164 53.9678 24.5811 53.8882 24.7053 53.766L26.8971 51.6093C27.6284 51.7094 28.3715 51.7094 29.1028 51.6093L31.2946 53.766C31.4187 53.8881 31.5834 53.9678 31.7621 53.992C31.9408 54.0162 32.123 53.9837 32.2794 53.8995L35.2287 52.3129C35.3851 52.2288 35.5065 52.098 35.5733 51.9417C35.6401 51.7854 35.6485 51.6127 35.597 51.4514L34.687 48.6001C35.1393 48.0556 35.5129 47.4581 35.7981 46.8229L38.8916 46.1341C39.0672 46.095 39.2236 46.0019 39.3354 45.8698C39.4473 45.7377 39.5081 45.5744 39.5081 45.4061V42.2328C39.5081 42.0646 39.4473 41.9012 39.3354 41.7692C39.2235 41.6371 39.0672 41.544 38.8916 41.5049ZM27.9998 48.1147C27.0881 48.1147 26.197 47.8627 25.4389 47.3908C24.6809 46.9188 24.0901 46.248 23.7412 45.4632C23.3924 44.6783 23.3011 43.8147 23.479 42.9816C23.6568 42.1484 24.0958 41.3831 24.7405 40.7824C25.3851 40.1817 26.2065 39.7726 27.1006 39.6069C27.9948 39.4412 28.9216 39.5262 29.7639 39.8513C30.6061 40.1764 31.326 40.7269 31.8326 41.4332C32.3391 42.1395 32.6094 42.9699 32.6094 43.8194C32.608 44.9582 32.1219 46.05 31.2578 46.8552C30.3936 47.6604 29.2219 48.1134 27.9998 48.1147Z" fill="#0B1F2A"/>
<path d="M51.0488 10.5405C50.5017 10.0266 49.7605 9.73791 48.9877 9.7378H7.01764C6.63442 9.73733 6.25487 9.80799 5.90068 9.94573C5.54649 10.0835 5.22462 10.2856 4.95347 10.5405C4.68232 10.7955 4.46722 11.0982 4.32045 11.4315C4.17369 11.7648 4.09814 12.122 4.09814 12.4828C4.09814 12.8435 4.17369 13.2008 4.32045 13.534C4.46722 13.8673 4.68232 14.1701 4.95347 14.425C5.22462 14.6799 5.54649 14.8821 5.90068 15.0198C6.25487 15.1575 6.63442 15.2282 7.01764 15.2277H9.5403L21.3166 29.2562L21.5317 31.6238L22.7051 30.9868C23.3523 30.6362 24.1059 30.5004 24.8449 30.6012C25.5839 30.702 26.2656 31.0336 26.7804 31.5428L28.0007 32.7542L29.2209 31.5428C29.5939 31.1721 30.0579 30.8934 30.5721 30.7309C31.0863 30.5685 31.6349 30.5274 32.1699 30.6112C32.5672 30.6685 32.9493 30.7959 33.2963 30.9868L34.9976 31.9073L46.7427 15.2277H48.9877C49.5642 15.227 50.1275 15.0655 50.6066 14.7636C51.0857 14.4618 51.459 14.033 51.6795 13.5316C51.9001 13.0301 51.9578 12.4784 51.8456 11.9461C51.7333 11.4137 51.456 10.9246 51.0488 10.5405ZM33.5005 27.3441C33.5005 27.3441 33.3208 20.5317 30.1179 14.9479H42.1119L33.5005 27.3441Z" fill="#0B1F2A"/>
</svg>
