<svg width="91" height="91" viewBox="0 0 91 91" fill="none" xmlns="http://www.w3.org/2000/svg">
<path d="M-1.98887e-06 45.5L22.75 6.09584L68.25 6.09584L91 45.5L68.25 84.9042L22.75 84.9042L-1.98887e-06 45.5Z" fill="#1BDDCE" fill-opacity="0.32"/>
<path d="M66.3522 40.9671C65.4241 39.8936 64.1848 39.1351 62.8179 38.794C62.8347 38.5946 62.8441 38.3933 62.8441 38.1939C62.8441 34.4421 59.7729 31.3892 55.9984 31.3892C54.9277 31.3892 53.8815 31.6371 52.9346 32.1067C52.7377 31.7041 52.5109 31.3202 52.254 30.9587C52.4415 30.9848 52.6196 30.9978 52.7902 30.9978C54.6315 30.9978 55.5353 29.5422 56.3077 28.2972C57.2658 26.7503 57.9352 25.8166 59.5589 26.0644C59.7877 26.0998 60.0146 25.9973 60.1383 25.8035C60.2639 25.6115 60.2621 25.3618 60.1346 25.1717C58.5802 22.8178 54.9035 22.4562 52.6552 23.7068C50.8758 24.6964 49.6608 26.4484 49.3364 28.4202C48.1608 27.8033 46.8521 27.4809 45.5002 27.4809C44.1483 27.4809 42.8395 27.8033 41.6621 28.4202C41.3377 26.4484 40.1227 24.6964 38.3433 23.7068C36.0952 22.4581 32.4182 22.8178 30.8639 25.1717C30.7383 25.3637 30.7364 25.6115 30.8602 25.8035C30.9839 25.9955 31.2127 26.098 31.4395 26.0644C33.0633 25.8165 33.7327 26.7521 34.6908 28.2972C35.4633 29.5441 36.3652 30.9978 38.2083 30.9978C38.3789 30.9978 38.557 30.9848 38.7445 30.9587C38.4876 31.3221 38.2589 31.7042 38.0639 32.1067C37.117 31.6352 36.0708 31.3892 35.0001 31.3892C31.2258 31.3892 28.1544 34.442 28.1544 38.1939C28.1544 38.3933 28.1638 38.5946 28.1806 38.794C26.8119 39.1332 25.5725 39.8918 24.6463 40.9671C23.585 42.1991 23 43.7721 23 45.3973C23 47.1176 23.6488 48.7614 24.8244 50.0213C25.8706 51.1433 27.2488 51.8738 28.7525 52.1143V56.481H26.2137C25.9831 56.481 25.7731 56.6171 25.6794 56.8277C25.5856 57.0383 25.6269 57.2843 25.7825 57.4539L31.1676 63.3172C31.2782 63.4384 31.4357 63.5073 31.5988 63.5073C31.7638 63.5073 31.9195 63.4384 32.0301 63.3172L37.4133 57.4539C37.5689 57.2843 37.6102 57.0383 37.5164 56.8277C37.4227 56.6171 37.2127 56.481 36.982 56.481H34.4433V52.1999H42.6537V59.9737H40.1149C39.8843 59.9737 39.6743 60.1097 39.5805 60.3203C39.4868 60.5309 39.528 60.777 39.6836 60.9466L45.0687 66.8099C45.1794 66.931 45.3369 67 45.5 67C45.6631 67 45.8206 66.931 45.9312 66.8099L51.3144 60.9466C51.4701 60.777 51.5113 60.5309 51.4176 60.3203C51.3238 60.1097 51.1138 59.9737 50.8832 59.9737H48.3444L48.3463 52.1999H56.5586V56.481H54.0198C53.7892 56.481 53.5792 56.6171 53.4855 56.8277C53.3917 57.0383 53.433 57.2843 53.5886 57.4539L58.9737 63.3172C59.0843 63.4384 59.2418 63.5073 59.4049 63.5073C59.5681 63.5073 59.7256 63.4384 59.8362 63.3172L65.2194 57.4539C65.375 57.2843 65.4163 57.0383 65.3225 56.8277C65.2288 56.6171 65.0188 56.481 64.7881 56.481H62.2494V52.1143C63.7512 51.8738 65.1312 51.1432 66.1775 50.0213C67.3512 48.7595 68 47.1176 68 45.3973C68 43.7721 67.4153 42.1991 66.3522 40.9671ZM53.2271 24.7207C54.6559 23.9267 56.8815 23.9472 58.3084 24.9462C56.8028 25.2836 55.9928 26.59 55.3122 27.6878C54.2565 29.3913 53.4765 30.6493 50.6978 29.2086C52.1096 27.3803 53.6828 26.3329 55.4959 26.0123C55.8146 25.9564 56.0265 25.6545 55.9703 25.3395C55.914 25.0245 55.6121 24.8139 55.2934 24.8679C53.6752 25.1531 52.2353 25.9154 50.934 27.1846C51.414 26.1614 52.2071 25.2891 53.2271 24.7207ZM35.6884 27.6897C35.0078 26.5919 34.1959 25.2836 32.6922 24.9481C34.1191 23.9491 36.3447 23.9286 37.7734 24.7226C38.7934 25.2892 39.5884 26.1632 40.0684 27.1883C38.7672 25.9191 37.3272 25.1569 35.7091 24.8717C35.3903 24.8158 35.0884 25.0264 35.0322 25.3432C34.9759 25.66 35.1878 25.9601 35.5065 26.016C37.3196 26.3347 38.8947 27.384 40.3047 29.2124C37.524 30.6512 36.744 29.3913 35.6884 27.6897ZM61.618 51.0199C61.3143 51.0442 61.0799 51.2958 61.0799 51.5995V57.0621C61.0799 57.3827 61.3405 57.6436 61.6649 57.6436H63.463L59.4037 62.0644L55.3443 57.6436H57.1424C57.4649 57.6436 57.7275 57.3846 57.7275 57.0621V51.6201C57.7275 51.2995 57.4668 51.0385 57.1424 51.0385H47.7618C47.4393 51.0385 47.1768 51.2976 47.1768 51.6201V60.5551C47.1768 60.8757 47.4374 61.1366 47.7618 61.1366H49.5599L45.5006 65.5574L41.4412 61.1366H43.2393C43.5619 61.1366 43.8244 60.8776 43.8244 60.5551V51.6186C43.8244 51.2981 43.5637 51.0371 43.2393 51.0371L33.8587 51.039C33.5362 51.039 33.2737 51.298 33.2737 51.6205V57.0625C33.2737 57.3831 33.5343 57.644 33.8587 57.644H35.6568L31.5975 62.0649L27.5381 57.644H29.3363C29.6588 57.644 29.9213 57.385 29.9213 57.0625V51.6C29.9213 51.298 29.6869 51.0446 29.3832 51.0204C26.4601 50.7874 24.1689 48.316 24.1689 45.3975C24.1689 42.6168 26.1696 40.2742 28.9258 39.8285C29.0796 39.8043 29.2164 39.7186 29.3083 39.5918C29.3983 39.4651 29.4339 39.3086 29.4096 39.1557C29.3552 38.8389 29.3271 38.5165 29.3271 38.194C29.3271 35.0835 31.8733 32.5526 35.0026 32.5526C36.0788 32.5526 37.1251 32.8526 38.0307 33.4211C38.1788 33.5143 38.3607 33.5366 38.5257 33.4826C38.6926 33.4285 38.8238 33.3037 38.8876 33.1415C39.4069 31.8145 40.2863 30.7149 41.3907 29.9358C41.415 29.9228 41.4375 29.9097 41.4619 29.8948C41.4694 29.8911 41.475 29.8855 41.4807 29.8818C41.4863 29.8781 41.4919 29.8762 41.4957 29.8725C41.5013 29.8687 41.5088 29.8631 41.5144 29.8576C41.52 29.8538 41.5257 29.8482 41.5313 29.8445C41.5425 29.8352 41.5519 29.8259 41.5632 29.8166C42.6994 29.0655 44.055 28.6424 45.4988 28.6424C46.9406 28.6424 48.2981 29.0655 49.4325 29.8166C49.4419 29.8259 49.4531 29.8352 49.4644 29.8445C49.47 29.8482 49.4756 29.8538 49.4813 29.8576C49.4869 29.8613 49.4925 29.8669 49.5 29.8725C49.5056 29.8762 49.5113 29.8781 49.515 29.8818C49.5206 29.8855 49.5281 29.8911 49.5338 29.8948C49.5581 29.9097 49.5806 29.9228 49.605 29.9358C50.7094 30.7149 51.5888 31.8126 52.1081 33.1415C52.1719 33.3037 52.305 33.4285 52.47 33.4826C52.6369 33.5366 52.8169 33.5143 52.965 33.4211C53.8706 32.8526 54.9168 32.5526 55.9931 32.5526C59.1225 32.5526 61.6686 35.0836 61.6686 38.194C61.6686 38.5165 61.6405 38.8389 61.5861 39.1557C61.5599 39.3086 61.5955 39.4651 61.6874 39.5918C61.7774 39.7186 61.9161 39.8025 62.0699 39.8285C64.8261 40.274 66.8268 42.6167 66.8268 45.3975C66.8324 48.3161 64.5411 50.7875 61.6178 51.0204L61.618 51.0199ZM48.5419 32.0415C48.3544 31.9073 48.105 31.8943 47.9062 32.0098C47.7075 32.1254 47.5931 32.3453 47.6175 32.5745C47.9212 35.3906 46.0087 36.4474 43.7944 37.6702C40.8806 39.2786 37.5789 41.1014 40.9894 47.4416C40.9912 47.4453 40.9931 47.4491 40.995 47.4528C41.0006 47.4621 41.0044 47.4696 41.01 47.4789C41.0137 47.4845 41.0175 47.4882 41.0212 47.4938C41.0287 47.5031 41.0344 47.5124 41.0419 47.5218C41.0512 47.5329 41.0587 47.5441 41.0681 47.5534C41.0756 47.5609 41.0831 47.5702 41.0906 47.5777C41.1019 47.5889 41.1112 47.5982 41.1225 47.6075C41.13 47.6131 41.1375 47.6205 41.145 47.6261C41.1562 47.6355 41.1694 47.6448 41.1806 47.6522C41.19 47.6578 41.1975 47.6634 41.2069 47.669C41.22 47.6765 41.2331 47.682 41.2462 47.6895C41.2556 47.6932 41.265 47.6988 41.2744 47.7025C41.2875 47.7081 41.3006 47.7119 41.3137 47.7175C41.325 47.7212 41.3344 47.7249 41.3456 47.7268C41.3587 47.7305 41.3719 47.7324 41.385 47.7361C41.3962 47.738 41.4075 47.7398 41.4187 47.7417C41.4337 47.7435 41.4469 47.7454 41.4619 47.7454C41.4694 47.7454 41.4769 47.7473 41.4844 47.7473H41.5012H41.5031C41.5969 47.751 41.6925 47.751 41.7862 47.751C45.1913 47.751 48.392 45.9916 50.192 43.1065C52.2039 39.8878 51.9225 34.4715 48.5419 32.0415ZM49.2019 42.4933C47.9437 44.508 45.9131 45.9002 43.6276 46.3904C46.2995 44.3086 47.9157 41.9118 48.5495 39.1105C48.6208 38.7974 48.422 38.4862 48.107 38.4172C47.792 38.3464 47.4789 38.5439 47.4096 38.8571C46.7533 41.7664 44.8914 44.2137 41.7302 46.3269C39.3208 41.4679 41.5577 40.2326 44.3627 38.6834C46.2977 37.6155 48.4521 36.4264 48.7783 33.8397C50.7114 36.147 50.6962 40.0982 49.2019 42.4933Z" fill="#0B1F2A"/>
</svg>
