<svg width="91" height="91" viewBox="0 0 91 91" fill="none" xmlns="http://www.w3.org/2000/svg">
<path d="M-1.98887e-06 45.5L22.75 6.09584L68.25 6.09584L91 45.5L68.25 84.9042L22.75 84.9042L-1.98887e-06 45.5Z" fill="#1BDDCE" fill-opacity="0.32"/>
<path fill-rule="evenodd" clip-rule="evenodd" d="M31.6483 57.5314C33.4934 57.5314 34.4252 59.7625 33.1178 61.0607C31.8104 62.361 29.5692 61.4343 29.5692 59.5992C29.5692 58.4581 30.501 57.5314 31.6483 57.5314ZM51.7929 32.9138C55.2451 32.9138 58.0444 35.6981 58.0444 39.1313C58.0444 42.5647 55.2449 45.3488 51.7929 45.3488C48.3407 45.3488 45.5415 42.5645 45.5415 39.1313C45.5415 35.6979 48.341 32.9138 51.7929 32.9138ZM55.3785 35.5654C53.3979 33.5956 50.1879 33.5956 48.2091 35.5654C46.2285 37.5352 46.2285 40.7278 48.2091 42.6958C50.1897 44.6656 53.3997 44.6656 55.3785 42.6958C57.3591 40.726 57.3591 37.5334 55.3785 35.5654ZM65 37.3699C65 36.6351 64.3966 36.0349 63.6577 36.0349H62.3626C62.141 35.2878 61.8413 34.5692 61.4699 33.8895L62.3852 32.9791C62.9086 32.4586 62.9086 31.6114 62.3852 31.0909L59.8813 28.6005C59.3579 28.08 58.5062 28.08 57.9828 28.6005L57.0674 29.511C56.3839 29.1395 55.6615 28.8415 54.9103 28.623V27.335C54.9103 26.6002 54.3069 26 53.568 26H50.0255C49.2867 26 48.6832 26.6001 48.6832 27.335V28.623C47.932 28.8435 47.2096 29.1415 46.5261 29.511L45.6107 28.6005C45.0873 28.08 44.2356 28.08 43.7122 28.6005L41.2083 31.0909C40.6849 31.6114 40.6849 32.4585 41.2083 32.9791L42.1236 33.8895C41.7501 34.5692 41.4505 35.2878 41.2308 36.0349H39.9358C39.1969 36.0349 38.5935 36.635 38.5935 37.3699V40.8931C38.5935 41.628 39.1969 42.2281 39.9358 42.2281H41.2308C41.4525 42.9752 41.7501 43.6938 42.1236 44.3735L41.2083 45.2839C40.6849 45.8045 40.6849 46.6516 41.2083 47.1721L43.7122 49.6625C44.2356 50.183 45.0873 50.183 45.6107 49.6625L46.5261 48.752C47.2096 49.1236 47.932 49.4216 48.6832 49.64V50.928C48.6832 51.6628 49.2866 52.263 50.0255 52.263H53.568C54.3068 52.263 54.9103 51.6629 54.9103 50.928V49.64C55.6615 49.4195 56.3839 49.1236 57.0674 48.752L57.9828 49.6625C58.5062 50.183 59.3579 50.183 59.8813 49.6625L62.3852 47.1721C62.9086 46.6516 62.9086 45.8045 62.3852 45.2839L61.4699 44.3735C61.8434 43.6938 62.143 42.9752 62.3626 42.2281H63.6577C64.3966 42.2281 65 41.628 65 40.8931V37.3699ZM63.8178 40.8931V37.3699C63.8178 37.2842 63.7439 37.2086 63.6557 37.2086H61.9091V37.2066C61.6443 37.2066 61.4021 37.027 61.3365 36.7595C61.2195 36.288 61.0655 35.8308 60.8808 35.3858C60.6981 34.9469 60.4826 34.5223 60.2384 34.1161C60.0844 33.8875 60.1091 33.5751 60.3123 33.3731L61.5478 32.1442C61.6094 32.083 61.6094 31.9788 61.5478 31.9176L59.0439 29.4273C58.9823 29.366 58.8777 29.366 58.8161 29.4273L57.5805 30.6561C57.3937 30.8419 57.0961 30.8848 56.858 30.7439C56.4414 30.4949 56.0063 30.2765 55.5568 30.0907C55.1217 29.9111 54.6742 29.7621 54.2145 29.6477C53.9374 29.5988 53.726 29.3579 53.726 29.068V27.3309C53.726 27.2452 53.6521 27.1696 53.5639 27.1696H50.0214C49.9352 27.1696 49.8592 27.2431 49.8592 27.3309V29.068H49.8572C49.8572 29.3313 49.6766 29.5722 49.4077 29.6375C48.9336 29.7539 48.4739 29.907 48.0264 30.0907C47.5852 30.2723 47.1583 30.4867 46.7498 30.7296C46.5199 30.8827 46.2059 30.8582 46.0027 30.6561L44.7671 29.4273C44.7056 29.366 44.6009 29.366 44.5393 29.4273L42.0354 31.9176C41.9738 31.9788 41.9738 32.0829 42.0354 32.1442L43.271 33.373C43.4577 33.5588 43.5029 33.8568 43.3592 34.0916C43.1088 34.506 42.8892 34.9367 42.7024 35.3858C42.5218 35.8185 42.372 36.2635 42.2571 36.7208C42.2078 36.9963 41.9656 37.2066 41.6742 37.2066H39.9276C39.8414 37.2066 39.7654 37.2801 39.7654 37.3678V40.8911C39.7654 40.9768 39.8393 41.0523 39.9276 41.0523H41.6742V41.0544C41.9389 41.0544 42.1811 41.234 42.2468 41.5014C42.3638 41.973 42.5177 42.4302 42.7024 42.8752C42.8851 43.3141 43.1006 43.7386 43.3448 44.1449C43.4988 44.3735 43.4741 44.6858 43.271 44.8879L42.0354 46.1168C41.9738 46.178 41.9738 46.2821 42.0354 46.3434L44.5393 48.8337C44.6009 48.8949 44.7056 48.8949 44.7671 48.8337L46.0027 47.6048C46.1895 47.4191 46.4871 47.3762 46.7252 47.5171C47.1418 47.7661 47.5769 47.9845 48.0264 48.1703C48.4615 48.3499 48.909 48.4989 49.3687 48.6132C49.6458 48.6622 49.8572 48.9031 49.8572 49.193V50.9301C49.8572 51.0158 49.9311 51.0913 50.0193 51.0913H53.5618C53.648 51.0913 53.724 51.0178 53.724 50.9301V49.193H53.726C53.726 48.9296 53.9066 48.6888 54.1755 48.6235C54.6496 48.5071 55.1093 48.354 55.5568 48.1703C55.9981 47.9886 56.4249 47.7743 56.8334 47.5314C57.0633 47.3783 57.3773 47.4028 57.5805 47.6048L58.8161 48.8337C58.8776 48.8949 58.9823 48.8949 59.0439 48.8337L61.5478 46.3434C61.6094 46.2821 61.6094 46.178 61.5478 46.1168L60.3123 44.8879C60.1255 44.7022 60.0803 44.4041 60.224 44.1694C60.4744 43.755 60.694 43.3243 60.8808 42.8752C61.0614 42.4425 61.2112 41.9975 61.3262 41.5402C61.3754 41.2646 61.6176 41.0544 61.9091 41.0544H63.6557C63.7419 41.0544 63.8178 40.9809 63.8178 40.8931ZM30.8539 48.7212H28.4752C28.1489 48.7212 27.8841 48.9845 27.8841 49.3091V55.4022C26.7676 55.839 26 56.9168 26 58.1456V61.0524C26 62.6752 27.332 64 28.9637 64H61.1825C62.8142 64 64.1462 62.6752 64.1462 61.0524V58.1456C64.1462 56.5228 62.8141 55.1981 61.1825 55.1981H40.5886V49.3072C40.5886 48.9826 40.3239 48.7193 39.9975 48.7193H37.6188V42.8038C37.6188 42.4793 37.354 42.216 37.0277 42.216H31.4472C31.1209 42.216 30.8561 42.4793 30.8561 42.8038V48.7193L30.8539 48.7212ZM36.4344 48.7212H32.0361V43.3936H36.4344V48.7212ZM34.4805 49.8969H39.4043V55.1999H34.4805V49.8969ZM33.2983 55.1999H29.0641V49.8969H33.2983V55.1999ZM61.1803 56.3757L28.9594 56.3737C27.9804 56.3737 27.1779 57.1718 27.1779 58.1455V61.0523C27.1779 62.026 27.9804 62.8241 28.9594 62.8241H61.1782C62.1572 62.8241 62.9597 62.026 62.9597 61.0523V58.1455C62.9597 57.1718 62.1572 56.3737 61.1782 56.3737L61.1803 56.3757ZM58.4937 57.5331C60.3388 57.5331 61.2706 59.7642 59.9632 61.0625C58.6558 62.3628 56.4146 61.436 56.4146 59.6009C56.4146 58.4598 57.3463 57.5331 58.4937 57.5331ZM59.1278 58.9701C59.4788 59.3192 59.4788 59.8826 59.1278 60.2317C58.5655 60.791 57.5967 60.3929 57.5967 59.6009C57.5967 58.8089 58.5655 58.4088 59.1278 58.9701ZM51.7825 57.5331C53.6276 57.5331 54.5594 59.7642 53.252 61.0625C51.9446 62.3628 49.7034 61.436 49.7034 59.6009C49.7034 58.4598 50.6351 57.5331 51.7825 57.5331ZM52.4166 58.9701C52.7676 59.3192 52.7676 59.8826 52.4166 60.2317C51.8543 60.791 50.8855 60.3929 50.8855 59.6009C50.8855 58.8089 51.8543 58.4088 52.4166 58.9701ZM45.0713 57.5331C46.9164 57.5331 47.8482 59.7642 46.5408 61.0625C45.2334 62.3607 42.9922 61.436 42.9922 59.6009C42.9922 58.4598 43.9239 57.5331 45.0713 57.5331ZM45.7054 58.9701C46.0564 59.3192 46.0564 59.8826 45.7054 60.2317C45.1431 60.791 44.1743 60.3929 44.1743 59.6009C44.1743 58.8089 45.1431 58.4088 45.7054 58.9701ZM38.3601 57.5331C40.2052 57.5331 41.137 59.7642 39.8296 61.0625C38.5222 62.3628 36.281 61.436 36.281 59.6009C36.281 58.4598 37.2127 57.5331 38.3601 57.5331ZM38.9942 58.9701C39.3452 59.3192 39.3452 59.8826 38.9942 60.2317C38.4319 60.791 37.4631 60.3929 37.4631 59.6009C37.4631 58.8089 38.4319 58.4088 38.9942 58.9701ZM32.283 58.9701C31.7207 58.4108 30.7519 58.8089 30.7519 59.6009C30.7519 60.3929 31.7207 60.793 32.283 60.2316C32.634 59.8826 32.634 59.3192 32.283 58.9701Z" fill="#0B1F2A"/>
</svg>
