<svg width="40" height="39" viewBox="0 0 40 39" fill="none" xmlns="http://www.w3.org/2000/svg">
<path fill-rule="evenodd" clip-rule="evenodd" d="M17.6408 4.52949H23.9277L23.3921 0.000319411H17.6408L17.6408 4.52949ZM32.0798 4.52949L31.5443 0.000319411H24.524L25.0595 4.52949H32.0798ZM17.6408 10.1799H24.5971L24.0616 5.65072H17.6408L17.6408 10.1799ZM32.7488 10.1799L32.2133 5.65072H25.193L25.7285 10.1799H32.7488ZM25.4 16.9551H17.6408V21.4842H25.9355L25.4 16.9551ZM17.6408 15.8322H25.2666L24.731 11.303H17.6408L17.6408 15.8322ZM18.2156 25.1398H15.9432V29.136H18.2156V25.1398ZM19.3401 27.6994H22.4531C22.9244 27.6994 23.3117 28.0862 23.3117 28.5568V30.8383C23.3117 31.3088 22.9244 31.6956 22.4531 31.6956H11.7073C11.2361 31.6956 10.8487 31.3088 10.8487 30.8383V28.5568C10.8487 28.0862 11.236 27.6994 11.7073 27.6994H14.8203V29.6975C14.8203 30.0077 15.072 30.259 15.3826 30.259H18.7795C19.09 30.259 19.3417 30.0077 19.3417 29.6975V27.6994H19.3401ZM8.75691 16.9548L8.22139 21.484H16.5161V16.9548H8.75691ZM9.42626 11.3026L8.89075 15.8318H16.5165V11.3026H9.42626ZM10.0956 5.65222L9.5601 10.1814H16.5164V5.65222H10.0956ZM10.765 0L10.2295 4.52917H16.5163V0H10.765ZM9.0978 4.52917L9.63331 0H2.61303L2.07752 4.52917H9.0978ZM8.42844 10.1796L8.96395 5.6504H1.94368L1.40817 10.1796H8.42844ZM7.75909 15.8318L8.2946 11.3026H1.27432L0.738813 15.8318H7.75909ZM7.08973 21.484L7.62524 16.9548H0.606797L0.0712858 21.484H7.09156H7.08973ZM28.4028 22.6069H0V24.0168H28.4028V22.6069ZM28.4028 16.9547H26.5321L27.0676 21.4839H28.401V16.9547H28.4028ZM29.5488 16.5144L29.5256 16.7159V31.2318C29.5256 31.7273 29.9343 32.1355 30.4306 32.1355H39.095C39.5912 32.1355 40 31.7273 40 31.2318V16.7159C40 16.2204 39.5912 15.8122 39.095 15.8122H30.4306C30.0057 15.8122 29.6416 16.1116 29.547 16.5145L29.5488 16.5144ZM31.6693 17.3896H37.8579C38.1685 17.3896 38.4202 17.641 38.4202 17.9511V29.9952C38.4202 30.3054 38.1685 30.5567 37.8579 30.5567H31.6693C31.3587 30.5567 31.107 30.3054 31.107 29.9952V17.9511C31.107 17.641 31.3587 17.3896 31.6693 17.3896ZM32.785 14.6875H36.7423V13.3988C36.7423 13.249 36.6174 13.1243 36.4674 13.1243H33.0581C32.9082 13.1243 32.7832 13.249 32.7832 13.3988V14.6875H32.785ZM37.2957 27.4676V29.4336H32.2316V27.4676H37.2957ZM37.2957 24.3786V26.3447H32.2316V24.3786H37.2957ZM32.9652 12.0051C32.2351 12.0532 31.6604 12.6628 31.6604 13.3989V14.6876H30.4323C29.6415 14.6876 28.9401 15.1457 28.6062 15.832H26.4L25.8645 11.3028H32.8848L32.9687 12.0051H32.9652ZM4.28185 25.1398V34.4584C4.28185 36.3371 5.82231 37.8753 7.7037 37.8753H30.7784C32.6598 37.8753 34.2002 36.3371 34.2002 34.4584V33.257H35.3247V34.4584C35.3247 36.9574 33.2791 38.9982 30.7784 38.9982L7.70553 39C5.20295 39 3.15915 36.9573 3.15915 34.4602V25.1415H4.28368L4.28185 25.1398Z" fill="#1BDDCE"/>
</svg>
