<svg width="39" height="39" viewBox="0 0 39 39" fill="none" xmlns="http://www.w3.org/2000/svg">
<path d="M24.1016 12.805L24.6996 12.6035V13.65C24.6996 14.0075 24.9921 14.3 25.3496 14.3H27.9496C28.3071 14.3 28.5996 14.0075 28.5996 13.65V3.25C28.5996 2.8925 28.3071 2.6 27.9496 2.6H25.3496C24.9921 2.6 24.6996 2.8925 24.6996 3.25V4.082L23.3996 4.5175L22.2166 4.121L21.4366 0.5135C21.3716 0.2145 21.1051 0 20.7996 0H18.1996C17.8941 0 17.6276 0.2145 17.5626 0.5135L16.7826 4.121L15.5996 4.5175L14.2996 4.082V3.25C14.2996 2.8925 14.0071 2.6 13.6496 2.6H11.0496C10.6921 2.6 10.3996 2.8925 10.3996 3.25V13.65C10.3996 14.0075 10.6921 14.3 11.0496 14.3H13.6496C14.0071 14.3 14.2996 14.0075 14.2996 13.65V12.6035L14.8976 12.805L9.50261 37.7H2.59961V39H36.3996V37.7H29.4966L24.1016 12.805ZM26.0906 28.132L20.1496 30.797V24.7L25.7526 26.5655L26.0906 28.1255V28.132ZM24.5826 21.1705L24.9076 22.6785L20.1496 24.271V19.175L24.5826 21.1705ZM23.1916 5.8175C23.2566 5.837 23.3281 5.85 23.3996 5.85C23.4711 5.85 23.5361 5.837 23.6076 5.8175L24.6996 5.4535V11.232L23.8221 11.5245L22.5351 5.5965L23.1916 5.8175ZM22.0996 9.7175L22.4506 11.349L22.0996 11.232V9.7175ZM21.4496 16.9C21.8071 16.9 22.0996 16.6075 22.0996 16.25V12.6035L22.7756 12.831L23.6791 17.0105L20.1496 18.5965V16.9065H21.4496V16.9ZM20.1496 7.8H18.8496V6.5H20.1496V7.8ZM18.7261 1.3H18.8496V2.6H20.1496V1.3H20.2731L20.8386 3.9H18.1606L18.7261 1.3ZM16.8996 9.7175V11.232L16.5486 11.349L16.8996 9.7175ZM14.2996 11.232V5.4535L15.3916 5.8175C15.4566 5.837 15.5281 5.85 15.5996 5.85C15.6711 5.85 15.7361 5.837 15.8076 5.8175L16.4641 5.5965L15.1771 11.5245L14.2996 11.232ZM18.8496 37.7H10.8351L11.4916 34.6775L18.8496 31.382V37.7ZM18.8496 30.797L12.9086 28.132L13.2466 26.572L18.8496 24.7065V30.8035V30.797ZM18.8496 24.2645L14.0916 22.672L14.4166 21.164L18.8496 19.1685V24.2645ZM18.8496 18.5835L15.3201 16.9975L16.2236 12.818L16.8996 12.5905V16.237C16.8996 16.5945 17.1921 16.887 17.5496 16.887H18.8496V18.577V18.5835ZM18.8496 12.9935H20.1496V14.2935H18.8496V12.9935ZM20.1496 37.6935V31.3755L27.5076 34.671L28.1641 37.6935H20.1496Z" fill="#1BDDCE"/>
<path d="M1.3 37.7002H0V39.0002H1.3V37.7002Z" fill="#1BDDCE"/>
<path d="M38.9992 37.7002H37.6992V39.0002H38.9992V37.7002Z" fill="#1BDDCE"/>
<path d="M8.74827 11.1278L9.45677 10.0358C8.89127 9.67182 8.55977 9.06082 8.55977 8.40432C8.55977 7.74782 8.85877 7.20182 9.37227 6.83782L8.62477 5.77832C7.77327 6.38282 7.25977 7.36432 7.25977 8.40432C7.25977 9.50282 7.81877 10.5233 8.74827 11.1278Z" fill="#1BDDCE"/>
<path d="M7.52006 4.94665L6.68156 3.95215C5.36206 5.07015 4.60156 6.69515 4.60156 8.40465C4.60156 10.1141 5.40106 11.8301 6.79206 12.9546L7.61106 11.9406C6.52556 11.0631 5.90156 9.77615 5.90156 8.40465C5.90156 7.03315 6.49306 5.81765 7.52006 4.94665Z" fill="#1BDDCE"/>
<path d="M4.89372 14.7938L5.74522 13.8058C4.15922 12.4408 3.24922 10.4713 3.24922 8.40431C3.24922 6.33731 4.12672 4.4393 5.65422 3.0808L4.78972 2.1123C2.98922 3.7178 1.94922 6.01231 1.94922 8.40431C1.94922 10.7963 3.02172 13.1753 4.89372 14.7873V14.7938Z" fill="#1BDDCE"/>
<path d="M29.6333 10.0625L30.3808 11.122C31.2323 10.5175 31.7458 9.53596 31.7458 8.49596C31.7458 7.39746 31.1868 6.37696 30.2573 5.77246L29.5488 6.86446C30.1143 7.22846 30.4458 7.83946 30.4458 8.49596C30.4458 9.15246 30.1468 9.69846 29.6333 10.0625Z" fill="#1BDDCE"/>
<path d="M34.3982 8.49531C34.3982 6.72731 33.5987 5.06981 32.2077 3.94531L31.3887 4.95931C32.4742 5.83681 33.0982 7.12381 33.0982 8.49531C33.0982 9.86681 32.5067 11.0823 31.4797 11.9533L32.3182 12.9478C33.6377 11.8298 34.3982 10.2048 34.3982 8.49531Z" fill="#1BDDCE"/>
<path d="M34.1054 2.10645L33.2539 3.09445C34.8399 4.45945 35.7499 6.42895 35.7499 8.49595C35.7499 10.5629 34.8724 12.4609 33.3449 13.8194L34.2094 14.7879C36.0099 13.1824 37.0499 10.8879 37.0499 8.49595C37.0499 6.10395 35.9774 3.72495 34.1054 2.11295V2.10645Z" fill="#1BDDCE"/>
</svg>
