<svg width="34" height="32" viewBox="0 0 34 32" fill="none" xmlns="http://www.w3.org/2000/svg">
<path d="M33.4462 13.7702C30.8405 11.1996 24.459 5.77574 17 5.77574C9.54097 5.77574 3.15954 11.1996 0.55386 13.7702C0.37846 13.9428 0.239154 14.1484 0.144064 14.3753C0.0489732 14.6022 0 14.8458 0 15.0918C0 15.3378 0.0489732 15.5814 0.144064 15.8083C0.239154 16.0352 0.37846 16.2409 0.55386 16.4134C3.15954 18.9838 9.54097 24.4077 17 24.4077C24.459 24.4077 30.8405 18.9838 33.4462 16.4134C33.6215 16.2409 33.7608 16.0352 33.8559 15.8083C33.951 15.5814 34 15.3378 34 15.0918C34 14.8458 33.951 14.6022 33.8559 14.3753C33.7609 14.1485 33.6216 13.9428 33.4462 13.7702ZM17 20.6813C15.8945 20.6813 14.8138 20.3535 13.8946 19.7393C12.9754 19.1251 12.259 18.2521 11.8359 17.2307C11.4128 16.2094 11.3022 15.0855 11.5178 14.0012C11.7335 12.9169 12.2659 11.921 13.0476 11.1393C13.8293 10.3575 14.8253 9.82519 15.9095 9.60952C16.9938 9.39384 18.1177 9.50453 19.1391 9.9276C20.1604 10.3507 21.0334 11.0671 21.6476 11.9863C22.2618 12.9055 22.5896 13.9862 22.5896 15.0917C22.5896 15.8257 22.445 16.5526 22.1641 17.2307C21.8832 17.9089 21.4715 18.5251 20.9524 19.0441C20.4334 19.5632 19.8172 19.9749 19.139 20.2558C18.4609 20.5367 17.734 20.6813 17 20.6813ZM19.7948 15.0917C19.7948 15.6445 19.6309 16.1848 19.3238 16.6444C19.0167 17.104 18.5802 17.4622 18.0695 17.6738C17.5588 17.8853 16.9969 17.9406 16.4548 17.8328C15.9126 17.725 15.4146 17.4588 15.0238 17.0679C14.6329 16.6771 14.3667 16.1791 14.2589 15.6369C14.1511 15.0948 14.2064 14.5329 14.4179 14.0222C14.6295 13.5115 14.9877 13.075 15.4473 12.7679C15.9069 12.4608 16.4472 12.2969 17 12.2969C17.741 12.2977 18.4514 12.5925 18.9753 13.1164C19.4993 13.6403 19.794 14.3507 19.7948 15.0917ZM23.4603 1.39739C23.4603 1.02678 23.6075 0.671357 23.8696 0.409298C24.1316 0.147238 24.4871 1.05789e-05 24.8577 0H29.3282C30.0609 0.000795947 30.7634 0.292193 31.2816 0.810265C31.7997 1.32834 32.0912 2.03078 32.0921 2.76349V7.23451C32.0924 7.41822 32.0565 7.60019 31.9864 7.77C31.9163 7.93982 31.8134 8.09414 31.6836 8.22415C31.5538 8.35417 31.3997 8.45731 31.23 8.52768C31.0603 8.59806 30.8784 8.63428 30.6947 8.63428C30.511 8.63428 30.3291 8.59806 30.1594 8.52768C29.9897 8.45731 29.8355 8.35417 29.7057 8.22415C29.5759 8.09414 29.4731 7.93982 29.403 7.77C29.3329 7.60019 29.297 7.41822 29.2973 7.23451V2.76349L24.8577 2.79478C24.6742 2.79479 24.4924 2.75865 24.3229 2.68842C24.1534 2.6182 23.9993 2.51527 23.8695 2.38551C23.7398 2.25575 23.6369 2.1017 23.5666 1.93216C23.4964 1.76261 23.4603 1.5809 23.4603 1.39739ZM0.976331 7.23451V2.76349C0.977225 2.03078 1.26871 1.32834 1.78686 0.810265C2.305 0.292193 3.00748 0.000795947 3.74019 0H8.21075C8.58136 0 8.93679 0.147225 9.19885 0.409286C9.46091 0.671348 9.60814 1.02678 9.60814 1.39739C9.60814 1.768 9.46091 2.12343 9.19885 2.38549C8.93679 2.64756 8.58136 2.79478 8.21075 2.79478H3.74019L3.77114 7.23451C3.77114 7.60513 3.62391 7.96056 3.36185 8.22262C3.09978 8.48469 2.74435 8.63192 2.37373 8.63192C2.00312 8.63192 1.64768 8.48469 1.38562 8.22262C1.12356 7.96056 0.976331 7.60513 0.976331 7.23451ZM9.60813 29.718C9.60812 30.0886 9.4609 30.444 9.19884 30.7061C8.93678 30.9681 8.58135 31.1154 8.21074 31.1154H3.74019C3.00745 31.1145 2.30497 30.823 1.78683 30.3049C1.2687 29.7867 0.977223 29.0843 0.976331 28.3515V23.8809C0.976331 23.5103 1.12356 23.1548 1.38562 22.8928C1.64768 22.6307 2.00312 22.4835 2.37373 22.4835C2.74435 22.4835 3.09978 22.6307 3.36185 22.8928C3.62391 23.1548 3.77114 23.5103 3.77114 23.8809V28.3515L8.21075 28.3206C8.39426 28.3206 8.57597 28.3567 8.74551 28.4269C8.91505 28.4972 9.0691 28.6001 9.19886 28.7299C9.32862 28.8596 9.43155 29.0137 9.50177 29.1832C9.572 29.3527 9.60813 29.5345 9.60813 29.718ZM32.0921 23.8809V28.3515C32.0912 29.0843 31.7997 29.7867 31.2816 30.3049C30.7634 30.823 30.061 31.1145 29.3282 31.1154H24.8577C24.4871 31.1154 24.1316 30.9681 23.8696 30.7061C23.6075 30.444 23.4603 30.0886 23.4603 29.718C23.4603 29.3474 23.6075 28.9919 23.8696 28.7299C24.1316 28.4678 24.4871 28.3206 24.8577 28.3206H29.3282L29.2973 23.8809C29.2979 23.5107 29.4454 23.1558 29.7074 22.8943C29.9694 22.6327 30.3245 22.4858 30.6947 22.4858C31.0649 22.4858 31.42 22.6327 31.682 22.8943C31.944 23.1558 32.0914 23.5107 32.0921 23.8809Z" fill="#1BDDCE"/>
</svg>
