<svg width="792" height="221" viewBox="0 0 792 221" fill="none" xmlns="http://www.w3.org/2000/svg">
<path d="M179.649 184.41H134.649C131.996 184.415 129.348 184.205 126.729 183.78C115.236 181.997 104.614 176.583 96.4191 168.33L66.8691 138.77L48.7391 120.64C47.2211 119.158 46.0174 117.385 45.1999 115.427C44.3823 113.469 43.9677 111.367 43.9808 109.245C43.9938 107.123 44.4343 105.026 45.2759 103.079C46.1175 101.131 47.343 99.3732 48.8791 97.9097C50.34 96.4648 52.0785 95.3309 53.9897 94.5764C55.9009 93.8219 57.9452 93.4624 59.9991 93.5197C84.5191 93.5197 109.036 93.5197 133.549 93.5197C134.549 93.5197 135.479 93.4097 136.449 93.4497C136.954 93.4176 137.46 93.5057 137.924 93.7069C138.389 93.908 138.799 94.2164 139.121 94.6068C139.443 94.9973 139.668 95.4585 139.777 95.9527C139.886 96.4469 139.877 96.96 139.749 97.4497C139.467 98.3799 138.892 99.1938 138.109 99.7697C132.389 105.49 126.639 111.16 120.979 116.93C119.414 118.472 118.287 120.402 117.713 122.523C117.138 124.643 117.137 126.878 117.709 129C118.433 131.881 120.113 134.431 122.475 136.233C124.836 138.035 127.739 138.982 130.709 138.92C148.649 138.79 166.599 138.92 184.539 138.92C186.166 138.886 187.784 139.186 189.29 139.802C190.797 140.417 192.161 141.336 193.299 142.5L229.469 178.68C229.888 179.036 230.228 179.476 230.469 179.97C231.469 182.26 229.869 184.42 227.199 184.42H179.649V184.41ZM151.569 119L151.829 119.1C152.479 118.916 153.154 118.831 153.829 118.85H229.729C230.405 118.83 231.08 118.917 231.729 119.11H231.849H231.969C232.339 118.85 232.719 118.57 233.209 118.82L234.009 118.65C233.949 118.46 233.829 118.24 234.119 118.16C234.237 118.125 234.363 118.131 234.477 118.176C234.591 118.221 234.687 118.304 234.749 118.41L234.999 118.34C235.339 117.69 235.729 117.17 236.559 117.65C238.831 116.515 240.799 114.852 242.298 112.802C243.797 110.751 244.783 108.371 245.174 105.862C245.566 103.352 245.351 100.785 244.548 98.3755C243.746 95.9657 242.378 93.783 240.559 92.0097C224.399 75.8597 208.299 59.6197 191.999 43.5697C184.666 36.3941 175.39 31.5266 165.319 29.5697C161.274 28.7559 157.155 28.3637 153.029 28.3997C122.796 28.3997 92.5591 28.3997 62.3191 28.3997C59.8291 28.3997 58.5291 29.7497 58.7391 32.0297C58.8072 32.799 59.1646 33.5137 59.7391 34.0297L78.3991 52.6997C84.0191 58.3297 89.6891 63.9097 95.2491 69.5997C96.5495 71.0067 98.134 72.1211 99.8976 72.8694C101.661 73.6176 103.564 73.9824 105.479 73.9397C122.909 73.8797 140.349 73.9397 157.779 73.9397C161.249 73.9397 164.469 74.5597 167.219 76.8397C168.621 77.978 169.77 79.3957 170.593 81.0026C171.417 82.6095 171.897 84.3703 172.002 86.1729C172.107 87.9754 171.836 89.7802 171.205 91.4721C170.575 93.164 169.599 94.7059 168.339 95.9997C162.619 101.82 156.809 107.56 151.039 113.33C149.889 114.48 149.139 115.71 149.889 117.39L150.039 117.65C150.08 117.728 150.117 117.808 150.149 117.89L150.309 118.12L150.539 118.34L150.759 118.56L150.979 118.7L151.229 118.82L151.569 119Z" fill="url(#paint0_linear_723_749)"/>
<path d="M302.43 173.66V138.66H326.43V141.86H306.13V170.46H327.18V173.66H302.43ZM305.73 157.46V154.31H324.23V157.46H305.73Z" fill="white"/>
<path d="M365.881 173.66V138.66H368.931L393.081 169.06H391.481V138.66H395.131V173.66H392.081L368.001 143.26H369.601V173.66H365.881Z" fill="white"/>
<path d="M436.529 173.66V138.66H460.529V141.86H440.219V170.46H461.279V173.66H436.529ZM439.829 157.46V154.31H458.329V157.46H439.829Z" fill="white"/>
<path d="M500 173.66V138.66H513.1C517.54 138.66 521.033 139.717 523.58 141.83C524.853 142.909 525.86 144.267 526.522 145.799C527.185 147.33 527.485 148.994 527.4 150.66C527.461 152.909 526.863 155.127 525.68 157.04C524.482 158.865 522.765 160.29 520.75 161.13C518.329 162.138 515.722 162.626 513.1 162.56H502L503.65 160.86V173.66H500ZM503.7 161.16L502 159.41H513C516.5 159.41 519.167 158.643 521 157.11C521.861 156.266 522.545 155.258 523.011 154.146C523.478 153.035 523.719 151.841 523.719 150.635C523.719 149.429 523.478 148.236 523.011 147.124C522.545 146.012 521.861 145.005 521 144.16C519.18 142.627 516.513 141.86 513 141.86H502L503.65 140.11L503.7 161.16ZM523.9 173.66L514.9 160.96H518.9L527.9 173.66H523.9Z" fill="white"/>
<path d="M581.47 174C578.951 174.028 576.45 173.576 574.1 172.67C571.92 171.834 569.931 170.569 568.25 168.95C566.597 167.347 565.287 165.424 564.4 163.3C562.565 158.744 562.565 153.655 564.4 149.1C565.292 146.973 566.609 145.05 568.27 143.45C569.965 141.834 571.964 140.569 574.15 139.73C576.5 138.823 579.001 138.372 581.52 138.4C584.019 138.372 586.502 138.796 588.85 139.65C591.016 140.445 592.96 141.748 594.52 143.45L592.22 145.8C590.862 144.397 589.204 143.32 587.37 142.65C585.539 142.006 583.61 141.685 581.67 141.7C579.619 141.674 577.583 142.041 575.67 142.78C573.91 143.462 572.305 144.49 570.948 145.802C569.592 147.114 568.511 148.684 567.77 150.42C566.263 154.115 566.263 158.254 567.77 161.95C568.5 163.696 569.576 165.276 570.934 166.594C572.292 167.912 573.903 168.942 575.67 169.62C577.557 170.352 579.566 170.719 581.59 170.7C583.52 170.712 585.438 170.408 587.27 169.8C589.115 169.158 590.795 168.117 592.19 166.75L594.29 169.55C592.585 171.042 590.595 172.171 588.44 172.87C586.193 173.623 583.839 174.004 581.47 174ZM594.32 169.55L590.77 169.1V156.2H594.32V169.55Z" fill="white"/>
<path d="M643.12 173.66V160.66L644 163L629.15 138.7H633.15L646.15 160.05H644L657.05 138.7H660.75L645.92 163L646.77 160.7V173.7L643.12 173.66Z" fill="white"/>
<path d="M310.941 59.6296C311.321 60.5248 311.442 61.5089 311.291 62.4696C311.152 63.4219 310.718 64.3068 310.051 64.9996L276.921 102H310.861V112H265.611C264.638 112.001 263.688 111.712 262.881 111.17C262.061 110.639 261.409 109.886 261.001 109C260.568 108.127 260.425 107.139 260.591 106.18C260.75 105.235 261.173 104.354 261.811 103.64L295.021 66.6397H261.001V56.6397H306.331C307.303 56.6388 308.253 56.9277 309.061 57.4696C309.877 57.9991 310.529 58.7476 310.941 59.6296Z" fill="white" stroke="white" stroke-width="3" stroke-miterlimit="10"/>
<path d="M369.999 112H333.799C332.252 111.973 330.716 111.724 329.239 111.26C327.573 110.762 326.021 109.944 324.669 108.85C323.203 107.656 322.003 106.167 321.149 104.48C320.151 102.434 319.667 100.175 319.739 97.9V61.68C319.732 60.9937 319.865 60.3132 320.129 59.68C320.376 59.0774 320.736 58.5275 321.189 58.06C321.646 57.5976 322.19 57.2306 322.789 56.98C323.423 56.7178 324.103 56.5852 324.789 56.59H369.999V66.59H329.779V97.9C329.743 98.445 329.817 98.9917 329.998 99.5073C330.178 100.023 330.461 100.497 330.829 100.9C331.245 101.263 331.729 101.538 332.253 101.71C332.777 101.882 333.33 101.946 333.879 101.9H369.999V112ZM365.479 89.37H333.799V79.25H365.499L365.479 89.37Z" fill="white" stroke="white" stroke-width="3" stroke-miterlimit="10"/>
<path d="M435 107.71C435.006 108.398 434.87 109.078 434.6 109.71C434.345 110.307 433.978 110.85 433.52 111.31C432.567 112.245 431.285 112.766 429.95 112.76C429.308 112.755 428.671 112.637 428.07 112.41C427.43 112.175 426.854 111.791 426.39 111.29L389.75 73.0005V112H379.75V60.9105C379.742 59.9093 380.046 58.9305 380.62 58.1104C381.174 57.2944 381.942 56.6473 382.84 56.2404C383.766 55.8519 384.787 55.7509 385.77 55.9505C386.762 56.1318 387.67 56.6259 388.36 57.3604L425 95.6204V56.6204H435V107.71Z" fill="white" stroke="white" stroke-width="3" stroke-miterlimit="10"/>
<path d="M504.53 55.1201L477.25 110.69C476.711 111.768 475.879 112.673 474.85 113.3C473.809 113.934 472.613 114.27 471.395 114.27C470.176 114.27 468.98 113.934 467.94 113.3C466.929 112.672 466.101 111.789 465.54 110.74L438.27 55.1201H452.86L471.38 93.1201L489.98 55.1201H504.53Z" fill="url(#paint1_linear_723_749)"/>
<path d="M561.69 59.1298C561.358 58.3465 560.879 57.6338 560.28 57.0298C559.679 56.4369 558.969 55.965 558.19 55.6398C557.383 55.2995 556.516 55.126 555.64 55.1298H533C529.027 55.0992 525.086 55.8325 521.39 57.2898C517.938 58.6541 514.793 60.694 512.14 63.2898C509.49 65.9289 507.404 69.0794 506.01 72.5498C504.521 76.2796 503.774 80.264 503.81 84.2798V113.5H516.81V99.9098H549.11V113.5H562.11V61.6798C562.142 60.8103 561.999 59.9431 561.69 59.1298ZM528 68.9298C529.039 68.6232 530.103 68.409 531.18 68.2898C531.54 68.2898 532.64 68.1598 532.99 68.1598H549.14V86.8698H516.84V84.3098C516.778 82.0621 517.141 79.823 517.91 77.7098C518.535 76.068 519.453 74.5535 520.62 73.2398C521.631 72.111 522.837 71.1728 524.18 70.4698C525.396 69.8253 526.677 69.3092 528 68.9298Z" fill="url(#paint2_linear_723_749)"/>
<path d="M634.12 113.5H614L593.07 95.3902H584.91V82.3902H609.06C610.089 82.3196 611.101 82.0902 612.06 81.7101C612.886 81.3808 613.643 80.8991 614.29 80.2902C614.903 79.7074 615.381 78.9974 615.69 78.2101C616.047 77.2754 616.22 76.2805 616.2 75.2801V68.9001C616.213 68.6811 616.189 68.4615 616.13 68.2502C615.953 68.1908 615.767 68.1604 615.58 68.1602H583.9V113.5H570.9V61.6801C570.897 59.9521 571.568 58.2908 572.77 57.0501C573.363 56.435 574.079 55.9512 574.87 55.6302C575.69 55.2869 576.571 55.1134 577.46 55.1201H615.57C617.775 55.0609 619.961 55.5379 621.94 56.5102C623.52 57.3104 624.919 58.4248 626.052 59.785C627.185 61.1451 628.028 62.7225 628.53 64.4202C628.979 65.8479 629.215 67.3338 629.23 68.8301V75.2401C629.26 77.4707 628.949 79.6928 628.31 81.8301C627.747 83.6744 626.904 85.4214 625.81 87.0102C624.798 88.4726 623.567 89.771 622.16 90.8601C620.85 91.8896 619.424 92.7622 617.91 93.4601C616.471 94.1201 614.961 94.6133 613.41 94.9301C613.21 94.9801 613 95.0101 612.8 95.0501L634.12 113.5Z" fill="url(#paint3_linear_723_749)"/>
<path d="M696.51 59.1398C696.006 57.9505 695.162 56.9365 694.084 56.2249C693.006 55.5133 691.742 55.1358 690.45 55.1398H667.82C663.85 55.106 659.911 55.8394 656.22 57.2998C652.746 58.6645 649.589 60.7261 646.942 63.3574C644.295 65.9887 642.215 69.1341 640.83 72.5998C639.347 76.3311 638.603 80.3148 638.64 84.3298V113.5H651.64V99.9098H684V113.5H697V61.6798C697.005 60.8091 696.839 59.9459 696.51 59.1398ZM662.84 68.9198C663.877 68.6228 664.938 68.4121 666.01 68.2898C667.25 68.1798 667.68 68.1598 667.82 68.1598H684V86.8698H651.68V84.3098C651.62 82.0589 651.983 79.8168 652.75 77.6998C653.369 76.0602 654.284 74.5484 655.45 73.2398C656.468 72.1177 657.672 71.1805 659.01 70.4698C660.229 69.8213 661.513 69.3018 662.84 68.9198Z" fill="url(#paint4_linear_723_749)"/>
<defs>
<linearGradient id="paint0_linear_723_749" x1="144.709" y1="184.42" x2="144.709" y2="28.3797" gradientUnits="userSpaceOnUse">
<stop stop-color="#227ABF"/>
<stop offset="1" stop-color="#54C3BF"/>
</linearGradient>
<linearGradient id="paint1_linear_723_749" x1="471.4" y1="114.27" x2="471.4" y2="55.1201" gradientUnits="userSpaceOnUse">
<stop stop-color="#227ABF"/>
<stop offset="1" stop-color="#54C3BF"/>
</linearGradient>
<linearGradient id="paint2_linear_723_749" x1="533.01" y1="113.5" x2="533.01" y2="55.1198" gradientUnits="userSpaceOnUse">
<stop stop-color="#227ABF"/>
<stop offset="1" stop-color="#54C3BF"/>
</linearGradient>
<linearGradient id="paint3_linear_723_749" x1="602.49" y1="113.5" x2="602.49" y2="55.1201" gradientUnits="userSpaceOnUse">
<stop stop-color="#227ABF"/>
<stop offset="1" stop-color="#54C3BF"/>
</linearGradient>
<linearGradient id="paint4_linear_723_749" x1="667.83" y1="113.5" x2="667.83" y2="55.1198" gradientUnits="userSpaceOnUse">
<stop stop-color="#227ABF"/>
<stop offset="1" stop-color="#54C3BF"/>
</linearGradient>
</defs>
</svg>
