<svg width="687" height="219" viewBox="0 0 687 219" fill="none" xmlns="http://www.w3.org/2000/svg">
<path d="M153.649 188.41H108.649C105.996 188.415 103.348 188.205 100.729 187.78C89.2356 185.997 78.6142 180.583 70.4191 172.33L40.8691 142.77L22.7391 124.64C21.2211 123.158 20.0174 121.385 19.1999 119.427C18.3823 117.469 17.9677 115.367 17.9808 113.245C17.9938 111.123 18.4343 109.026 19.2759 107.079C20.1175 105.131 21.343 103.373 22.8791 101.91C24.34 100.465 26.0785 99.3309 27.9897 98.5764C29.9009 97.8219 31.9452 97.4624 33.9991 97.5197C58.5191 97.5197 83.0358 97.5197 107.549 97.5197C108.549 97.5197 109.479 97.4097 110.449 97.4497C110.954 97.4176 111.46 97.5057 111.924 97.7069C112.389 97.908 112.799 98.2164 113.121 98.6068C113.443 98.9973 113.668 99.4585 113.777 99.9527C113.886 100.447 113.877 100.96 113.749 101.45C113.467 102.38 112.892 103.194 112.109 103.77C106.389 109.49 100.639 115.16 94.9791 120.93C93.4144 122.472 92.2872 124.402 91.7127 126.523C91.1382 128.643 91.1369 130.878 91.7091 133C92.433 135.881 94.1131 138.431 96.4746 140.233C98.8361 142.035 101.739 142.982 104.709 142.92C122.649 142.79 140.599 142.92 158.539 142.92C160.166 142.886 161.784 143.186 163.29 143.802C164.797 144.417 166.161 145.336 167.299 146.5L203.469 182.68C203.888 183.036 204.228 183.476 204.469 183.97C205.469 186.26 203.869 188.42 201.199 188.42H153.649V188.41ZM125.569 123L125.829 123.1C126.479 122.916 127.154 122.831 127.829 122.85H203.729C204.405 122.83 205.08 122.917 205.729 123.11H205.849H205.969C206.339 122.85 206.719 122.57 207.209 122.82L208.009 122.65C207.949 122.46 207.829 122.24 208.119 122.16C208.237 122.125 208.363 122.131 208.477 122.176C208.591 122.221 208.687 122.304 208.749 122.41L208.999 122.34C209.339 121.69 209.729 121.17 210.559 121.65C212.831 120.515 214.799 118.852 216.298 116.802C217.797 114.751 218.783 112.371 219.174 109.862C219.566 107.352 219.351 104.785 218.548 102.375C217.746 99.9657 216.378 97.783 214.559 96.0097C198.399 79.8597 182.299 63.6197 165.999 47.5697C158.666 40.3941 149.39 35.5266 139.319 33.5697C135.274 32.7559 131.155 32.3637 127.029 32.3997C96.7958 32.3997 66.5591 32.3997 36.3191 32.3997C33.8291 32.3997 32.5291 33.7497 32.7391 36.0297C32.8072 36.799 33.1646 37.5137 33.7391 38.0297L52.3991 56.6997C58.0191 62.3297 63.6891 67.9097 69.2491 73.5997C70.5495 75.0067 72.134 76.1211 73.8976 76.8694C75.6613 77.6176 77.5638 77.9824 79.4791 77.9397C96.9091 77.8797 114.349 77.9397 131.779 77.9397C135.249 77.9397 138.469 78.5597 141.219 80.8397C142.621 81.978 143.77 83.3957 144.593 85.0026C145.417 86.6095 145.897 88.3703 146.002 90.1729C146.107 91.9754 145.836 93.7802 145.205 95.4721C144.575 97.164 143.599 98.7059 142.339 99.9997C136.619 105.82 130.809 111.56 125.039 117.33C123.889 118.48 123.139 119.71 123.889 121.39L124.039 121.65C124.08 121.728 124.117 121.808 124.149 121.89L124.309 122.12L124.539 122.34L124.759 122.56L124.979 122.7L125.229 122.82L125.569 123Z" fill="url(#paint0_linear_723_734)"/>
<path d="M276.43 177.66V142.66H300.43V145.86H280.13V174.46H301.18V177.66H276.43ZM279.73 161.46V158.31H298.23V161.46H279.73Z" fill="black"/>
<path d="M339.881 177.66V142.66H342.931L367.081 173.06H365.481V142.66H369.131V177.66H366.081L342.001 147.26H343.601V177.66H339.881Z" fill="black"/>
<path d="M410.529 177.66V142.66H434.529V145.86H414.219V174.46H435.279V177.66H410.529ZM413.829 161.46V158.31H432.329V161.46H413.829Z" fill="black"/>
<path d="M474 177.66V142.66H487.1C491.54 142.66 495.033 143.717 497.58 145.83C498.853 146.909 499.86 148.267 500.522 149.799C501.185 151.33 501.485 152.994 501.4 154.66C501.461 156.909 500.863 159.127 499.68 161.04C498.482 162.865 496.765 164.29 494.75 165.13C492.329 166.138 489.722 166.626 487.1 166.56H476L477.65 164.86V177.66H474ZM477.7 165.16L476 163.41H487C490.5 163.41 493.167 162.643 495 161.11C495.861 160.266 496.545 159.258 497.011 158.146C497.478 157.035 497.719 155.841 497.719 154.635C497.719 153.429 497.478 152.236 497.011 151.124C496.545 150.012 495.861 149.005 495 148.16C493.18 146.627 490.513 145.86 487 145.86H476L477.65 144.11L477.7 165.16ZM497.9 177.66L488.9 164.96H492.9L501.9 177.66H497.9Z" fill="black"/>
<path d="M555.47 178C552.951 178.028 550.45 177.576 548.1 176.67C545.92 175.834 543.931 174.569 542.25 172.95C540.597 171.347 539.287 169.424 538.4 167.3C536.565 162.744 536.565 157.655 538.4 153.1C539.292 150.973 540.609 149.05 542.27 147.45C543.965 145.834 545.964 144.569 548.15 143.73C550.5 142.823 553.001 142.372 555.52 142.4C558.019 142.372 560.502 142.796 562.85 143.65C565.016 144.445 566.96 145.748 568.52 147.45L566.22 149.8C564.862 148.397 563.204 147.32 561.37 146.65C559.539 146.006 557.61 145.685 555.67 145.7C553.619 145.674 551.583 146.041 549.67 146.78C547.91 147.462 546.305 148.49 544.948 149.802C543.592 151.114 542.511 152.684 541.77 154.42C540.263 158.115 540.263 162.254 541.77 165.95C542.5 167.696 543.576 169.276 544.934 170.594C546.292 171.912 547.903 172.942 549.67 173.62C551.557 174.352 553.566 174.719 555.59 174.7C557.52 174.712 559.438 174.408 561.27 173.8C563.115 173.158 564.795 172.117 566.19 170.75L568.29 173.55C566.585 175.042 564.595 176.171 562.44 176.87C560.193 177.623 557.839 178.004 555.47 178ZM568.32 173.55L564.77 173.1V160.2H568.32V173.55Z" fill="black"/>
<path d="M617.12 177.66V164.66L618 167L603.15 142.7H607.15L620.15 164.05H618L631.05 142.7H634.75L619.92 167L620.77 164.7V177.7L617.12 177.66Z" fill="black"/>
<path d="M284.941 63.6296C285.321 64.5248 285.442 65.5089 285.291 66.4696C285.152 67.4219 284.718 68.3068 284.051 68.9996L250.921 106H284.861V116H239.611C238.638 116.001 237.688 115.712 236.881 115.17C236.061 114.639 235.409 113.886 235.001 113C234.568 112.127 234.425 111.139 234.591 110.18C234.75 109.235 235.173 108.354 235.811 107.64L269.021 70.6397H235.001V60.6397H280.331C281.303 60.6388 282.253 60.9277 283.061 61.4696C283.877 61.9991 284.529 62.7476 284.941 63.6296Z" fill="black" stroke="black" stroke-width="3" stroke-miterlimit="10"/>
<path d="M343.999 116H307.799C306.252 115.973 304.716 115.724 303.239 115.26C301.573 114.762 300.021 113.944 298.669 112.85C297.203 111.656 296.003 110.167 295.149 108.48C294.151 106.434 293.667 104.175 293.739 101.9V65.68C293.732 64.9937 293.865 64.3132 294.129 63.68C294.376 63.0774 294.736 62.5275 295.189 62.06C295.646 61.5976 296.19 61.2306 296.789 60.98C297.423 60.7178 298.103 60.5852 298.789 60.59H343.999V70.59H303.779V101.9C303.743 102.445 303.817 102.992 303.998 103.507C304.178 104.023 304.461 104.497 304.829 104.9C305.245 105.263 305.729 105.538 306.253 105.71C306.777 105.882 307.33 105.946 307.879 105.9H343.999V116ZM339.479 93.37H307.799V83.25H339.499L339.479 93.37Z" fill="black" stroke="black" stroke-width="3" stroke-miterlimit="10"/>
<path d="M409 111.71C409.006 112.398 408.87 113.078 408.6 113.71C408.345 114.307 407.978 114.85 407.52 115.31C406.567 116.245 405.285 116.766 403.95 116.76C403.308 116.755 402.671 116.637 402.07 116.41C401.43 116.175 400.854 115.791 400.39 115.29L363.75 77.0005V116H353.75V64.9105C353.742 63.9093 354.046 62.9305 354.62 62.1104C355.174 61.2944 355.942 60.6473 356.84 60.2404C357.766 59.8519 358.787 59.7509 359.77 59.9505C360.762 60.1318 361.67 60.6259 362.36 61.3604L399 99.6204V60.6204H409V111.71Z" fill="black" stroke="black" stroke-width="3" stroke-miterlimit="10"/>
<path d="M478.53 59.1201L451.25 114.69C450.711 115.768 449.879 116.673 448.85 117.3C447.809 117.934 446.613 118.27 445.395 118.27C444.176 118.27 442.98 117.934 441.94 117.3C440.929 116.672 440.101 115.789 439.54 114.74L412.27 59.1201H426.86L445.38 97.1201L463.98 59.1201H478.53Z" fill="url(#paint1_linear_723_734)"/>
<path d="M535.69 63.1298C535.358 62.3465 534.879 61.6338 534.28 61.0298C533.679 60.4369 532.969 59.965 532.19 59.6398C531.383 59.2995 530.516 59.126 529.64 59.1298H507C503.027 59.0992 499.086 59.8325 495.39 61.2898C491.938 62.6541 488.793 64.694 486.14 67.2898C483.49 69.9289 481.404 73.0794 480.01 76.5498C478.521 80.2796 477.774 84.264 477.81 88.2798V117.5H490.81V103.91H523.11V117.5H536.11V65.6798C536.142 64.8103 535.999 63.9431 535.69 63.1298ZM502 72.9298C503.039 72.6232 504.103 72.409 505.18 72.2898C505.54 72.2898 506.64 72.1598 506.99 72.1598H523.14V90.8698H490.84V88.3098C490.778 86.0621 491.141 83.823 491.91 81.7098C492.535 80.068 493.453 78.5535 494.62 77.2398C495.631 76.111 496.837 75.1728 498.18 74.4698C499.396 73.8253 500.677 73.3092 502 72.9298Z" fill="url(#paint2_linear_723_734)"/>
<path d="M608.12 117.5H588L567.07 99.3902H558.91V86.3902H583.06C584.089 86.3196 585.101 86.0902 586.06 85.7101C586.886 85.3808 587.643 84.8991 588.29 84.2902C588.903 83.7074 589.381 82.9974 589.69 82.2101C590.047 81.2754 590.22 80.2805 590.2 79.2801V72.9001C590.213 72.6811 590.189 72.4615 590.13 72.2502C589.953 72.1908 589.767 72.1604 589.58 72.1602H557.9V117.5H544.9V65.6801C544.897 63.9521 545.568 62.2908 546.77 61.0501C547.363 60.435 548.079 59.9512 548.87 59.6302C549.69 59.2869 550.571 59.1134 551.46 59.1201H589.57C591.775 59.0609 593.961 59.5379 595.94 60.5102C597.52 61.3104 598.919 62.4248 600.052 63.785C601.185 65.1451 602.028 66.7225 602.53 68.4202C602.979 69.8479 603.215 71.3338 603.23 72.8301V79.2401C603.26 81.4707 602.949 83.6928 602.31 85.8301C601.747 87.6744 600.904 89.4214 599.81 91.0102C598.798 92.4726 597.567 93.771 596.16 94.8601C594.85 95.8896 593.424 96.7622 591.91 97.4601C590.471 98.1201 588.961 98.6133 587.41 98.9301C587.21 98.9801 587 99.0101 586.8 99.0501L608.12 117.5Z" fill="url(#paint3_linear_723_734)"/>
<path d="M670.51 63.1398C670.006 61.9505 669.162 60.9365 668.084 60.2249C667.006 59.5133 665.742 59.1358 664.45 59.1398H641.82C637.85 59.106 633.911 59.8394 630.22 61.2998C626.746 62.6645 623.589 64.7261 620.942 67.3574C618.295 69.9887 616.215 73.1341 614.83 76.5998C613.347 80.3311 612.603 84.3148 612.64 88.3298V117.5H625.64V103.91H658V117.5H671V65.6798C671.005 64.8091 670.839 63.9459 670.51 63.1398ZM636.84 72.9198C637.877 72.6228 638.938 72.4121 640.01 72.2898C641.25 72.1798 641.68 72.1598 641.82 72.1598H658V90.8698H625.68V88.3098C625.62 86.0589 625.983 83.8168 626.75 81.6998C627.369 80.0602 628.284 78.5484 629.45 77.2398C630.468 76.1177 631.672 75.1805 633.01 74.4698C634.229 73.8213 635.513 73.3018 636.84 72.9198Z" fill="url(#paint4_linear_723_734)"/>
<defs>
<linearGradient id="paint0_linear_723_734" x1="118.709" y1="188.42" x2="118.709" y2="32.3797" gradientUnits="userSpaceOnUse">
<stop stop-color="#227ABF"/>
<stop offset="1" stop-color="#54C3BF"/>
</linearGradient>
<linearGradient id="paint1_linear_723_734" x1="445.4" y1="118.27" x2="445.4" y2="59.1201" gradientUnits="userSpaceOnUse">
<stop stop-color="#227ABF"/>
<stop offset="1" stop-color="#54C3BF"/>
</linearGradient>
<linearGradient id="paint2_linear_723_734" x1="507.01" y1="117.5" x2="507.01" y2="59.1198" gradientUnits="userSpaceOnUse">
<stop stop-color="#227ABF"/>
<stop offset="1" stop-color="#54C3BF"/>
</linearGradient>
<linearGradient id="paint3_linear_723_734" x1="576.49" y1="117.5" x2="576.49" y2="59.1201" gradientUnits="userSpaceOnUse">
<stop stop-color="#227ABF"/>
<stop offset="1" stop-color="#54C3BF"/>
</linearGradient>
<linearGradient id="paint4_linear_723_734" x1="641.83" y1="117.5" x2="641.83" y2="59.1198" gradientUnits="userSpaceOnUse">
<stop stop-color="#227ABF"/>
<stop offset="1" stop-color="#54C3BF"/>
</linearGradient>
</defs>
</svg>
